<?xml version="1.0" encoding="utf-8"?>
<!-- Generator: Adobe Illustrator 24.1.2, SVG Export Plug-In . SVG Version: 6.00 Build 0)  -->
<svg version="1.1" id="Layer_1" xmlns="http://www.w3.org/2000/svg" xmlns:xlink="http://www.w3.org/1999/xlink" x="0px" y="0px"
	 viewBox="0 0 972 1745.3" style="enable-background:new 0 0 972 1745.3;" xml:space="preserve">
<style type="text/css">
	.light{fill:#33B44A;}
	.dark{fill:#002F24;}
</style>
<path class="light" d="M363.5,192.4c0,53.8-44.9,88.4-113.7,88.4c-26.4,0-38.6-6.1-38.8-6.2c-4.5,13.8-24.9,17.4-37.7,19.7
	c-0.3,0-0.6-0.2-0.6-0.5c0-0.2,0.1-0.5,0.3-0.6c13-5.6,30.7-18.3-1.4-39c-20.4-13.1-33.1-39.8-33.1-61.8
	c0-53.8,42.1-97.2,117.4-97.4C326.1,95.2,363.5,138.6,363.5,192.4"/>
<path class="dark" d="M218.3,206.7c0,3.7-1,7.3-3,10.4c-2.1,3.2-5.2,5.7-8.7,7.2c-4.3,1.8-8.9,2.7-13.6,2.6
	c-6.3,0-11.5-1.2-15.6-3.6c-2.9-1.7-5.3-4-7.1-6.8c-1.7-2.5-2.6-5.3-2.7-8.3c0-3.1,2.5-5.7,5.6-5.7c0.1,0,0.1,0,0.2,0
	c1.3,0,2.5,0.4,3.4,1.3c1.1,1.1,1.9,2.4,2.4,3.9c0.7,1.8,1.6,3.5,2.6,5.1c1,1.4,2.4,2.6,4,3.4c2.1,1,4.4,1.4,6.7,1.3
	c3.3,0.2,6.6-0.8,9.3-2.7c2.2-1.5,3.6-4,3.6-6.7c0.1-1.9-0.6-3.8-1.9-5.1c-1.4-1.4-3.1-2.4-5-3c-2-0.7-4.8-1.4-8.2-2.2
	c-3.9-0.9-7.8-2.1-11.5-3.7c-2.9-1.3-5.4-3.3-7.3-5.9c-1.9-2.7-2.8-5.9-2.7-9.2c0-3.3,1-6.6,2.9-9.3c2.1-2.9,5-5,8.3-6.3
	c4.1-1.6,8.4-2.3,12.8-2.3c3.4-0.1,6.9,0.4,10.1,1.4c2.6,0.8,5,2.1,7.1,3.9c1.7,1.4,3.1,3.1,4.1,5.1c0.8,1.6,1.3,3.4,1.3,5.2
	c0,1.5-0.6,3-1.6,4.1c-1,1.2-2.5,1.9-4.1,1.9c-1.2,0.1-2.4-0.3-3.4-1.1c-1-1.1-1.8-2.3-2.5-3.6c-1-2.2-2.4-4.1-4.2-5.6
	c-1.6-1.3-4.2-2-7.8-2c-2.9-0.1-5.7,0.6-8.1,2.2c-1.9,1.1-3,3.1-3.1,5.3c0,1.2,0.3,2.3,1.1,3.3c0.8,1,1.7,1.8,2.9,2.4
	c1.2,0.7,2.4,1.2,3.7,1.6c1.2,0.4,3.3,0.9,6.2,1.6c3.3,0.8,6.6,1.7,9.8,2.8c2.6,0.9,5.1,2.1,7.4,3.7c2,1.4,3.7,3.3,4.8,5.5
	C217.8,201.1,218.3,203.9,218.3,206.7z"/>
<path class="dark" d="M270,218.6l-3-8h-26l-3,8.2c-0.7,2.3-1.7,4.4-3,6.4c-1,1.2-2.6,1.8-4.1,1.7c-1.6,0-3.2-0.6-4.3-1.8
	c-1.2-1-1.8-2.5-1.9-4c0-0.9,0.2-1.8,0.4-2.7c0.3-0.9,0.8-2.2,1.4-3.9l16.3-41.4c0.5-1.2,1-2.6,1.7-4.3c0.5-1.5,1.2-2.8,2.1-4.1
	c0.7-1.1,1.7-2,2.9-2.7c1.4-0.7,2.9-1.1,4.4-1c1.6-0.1,3.1,0.3,4.5,1c1.2,0.6,2.2,1.5,2.9,2.6c0.7,1.1,1.4,2.2,1.9,3.4
	c0.5,1.2,1.1,2.9,1.9,4.9l16.6,41.1c1.3,3.1,2,5.4,2,6.8c0,1.5-0.7,3-1.8,4.1c-1.2,1.2-2.8,1.9-4.5,1.9c-0.9,0-1.8-0.2-2.6-0.6
	c-0.7-0.3-1.4-0.9-1.9-1.5c-0.6-0.9-1.2-1.9-1.6-2.9C270.9,220.7,270.4,219.6,270,218.6z M244.4,200.9h19l-9.6-26.3L244.4,200.9z"/>
<path class="dark" d="M301.8,219.1v-20.2l-15.6-24.1c-1.1-1.6-2-3.3-2.9-5.1c-0.5-1-0.8-2.1-0.8-3.2c0-1.5,0.6-2.9,1.7-3.8
	c1.1-1.1,2.7-1.6,4.2-1.6c1.5-0.1,2.9,0.4,4,1.5c1.5,1.9,2.9,3.9,4.1,6l11.9,19.3l12-19.3l1.8-3c0.5-0.8,1-1.6,1.6-2.3
	c0.6-0.7,1.2-1.2,2-1.6c0.8-0.4,1.7-0.6,2.6-0.6c1.5,0,3,0.5,4.1,1.6c1,0.9,1.6,2.3,1.6,3.7c0,1.2-0.3,2.3-0.8,3.4
	c-0.8,1.6-1.8,3.2-2.8,4.7l-16,24.5v20.2c0,2.7-0.6,4.6-1.8,5.9c-2.5,2.6-6.7,2.6-9.2,0.1c0,0-0.1-0.1-0.1-0.1
	C302.4,223.7,301.8,221.7,301.8,219.1z"/>
</svg>
