<svg version="1.1" id="Layer_1" xmlns="http://www.w3.org/2000/svg" xmlns:xlink="http://www.w3.org/1999/xlink" x="0px" y="0px" viewBox="0 0 972 1745.3" style="enable-background:new 0 0 972 1745.3;" xml:space="preserve">
<style type="text/css">
	.kxxunqxv{fill:#49247F;}
	.kxxunqxw{opacity:0.kxxunqxx{fill:#CEA5E1;}
	.kxxunqxy{fill:none;stroke:#CEA5E1;stroke-width:5;stroke-miterlimit:10;}
	.kxxunqxz{fill:#FFA5E1;}
	.kxxunqy0{fill:#00F168;}
	.kxxunqy1{fill:#33B44A;stroke:#002F24;stroke-width:5;stroke-miterlimit:10;}
	.kxxunqy2{fill:#002F24;}
	.kxxunqy3{fill:none;stroke:#002F24;stroke-width:5;stroke-miterlimit:10;}
	.kxxunqy4{fill:none;stroke:#000000;stroke-miterlimit:10;}
	.kxxunqy5{fill:none;stroke:#002F24;stroke-width:10;stroke-miterlimit:10;}
	.kxxunqy6{fill:#FF6700;}
	.kxxunqy7{fill:#FF2B00;stroke:#9F0000;stroke-width:5;stroke-miterlimit:10;}
	.kxxunqy8{fill:#9F0000;}
	.kxxunqy9{fill:none;stroke:#9F0000;stroke-width:5;stroke-miterlimit:10;}
	.kxxunqya{fill:#FF6D0C;}
</style>
<path class="kxxunqya" d="M84.7,0h802.6C934.1,0,972,37.9,972,84.7v1575.9c0,46.8-37.9,84.7-84.7,84.7H84.7c-46.8,0-84.7-37.9-84.7-84.7
	V84.7C0,37.9,37.9,0,84.7,0z"></path>
<path class="kxxunqy7" d="M161.1,1684c-38.3,0-69.3-29.8-69.3-69.3c0-176.2,521.6-167.6,547.5-16.1c8.6,44.3,44.6,57.1,43.2,55.8
	c-13.2-11.9-57.8-60.9,27.8-136.1c259.1-227.6-600.1-268.9-600.1-268.9c-44.6,0-80.7-36.2-80.7-80.8l1.1-936.1
	c0-38.6,37.9-69.9,84.7-69.9h742.6c46.8,0,84.7,31.3,84.7,69.9v947.7c0,84.2-395.1,69.9-441.9,69.9c0,0,436.6,28.2,431.7,169.8
	c-4,115.4-84.1,194.7-136.5,234.6c-25.4,19.3-56.5,29.7-88.5,29.7L161.1,1684z"></path>
<g>
	<path class="kxxunqy8" d="M62.8,1490.3l28.2,21l-11.7-30.5c-1.2-3.2-2-5.4-2.3-6.7c-0.4-1.2-0.3-2.7,0-4.3c0.4-1.6,1.4-3.1,3.2-4.4
		c1.8-1.4,3.5-2,5.2-1.9c1.7,0.1,3.1,0.5,4.3,1.2c1.2,0.7,3.1,2,5.7,4l26,19.7l-12.3-33c-0.9-2.3-1.6-4.1-1.9-5.2
		c-0.3-1.1-0.4-2.3-0.1-3.5c0.3-1.2,1.1-2.4,2.6-3.5c1.4-1.1,3.1-1.5,4.9-1.3c1.8,0.2,3.2,1,4.3,2.3c0.9,1.2,1.9,3.5,2.9,6.6
		l11.9,36.3c1,3.1,1.7,5.4,2,6.8c0.3,1.4,0.3,3,0,4.6c-0.4,1.6-1.4,3.1-3.2,4.4c-1.8,1.4-3.6,2-5.3,1.9c-1.7-0.1-3.3-0.7-4.8-1.6
		c-1.5-0.9-3.3-2.3-5.5-3.9l-24.6-18.3l11,28.5c1.6,3.9,2.5,7.1,2.7,9.6c0.2,2.4-1,4.6-3.6,6.6c-1.3,1-2.6,1.6-4,1.8
		c-1.3,0.2-2.6,0-4-0.5c-1.3-0.5-2.7-1.2-4.2-2.2c-1.5-1-2.6-1.7-3.5-2.3L55,1501.1c-3-2-4.9-3.5-5.7-4.5c-1-1.3-1.3-2.8-1.1-4.7
		c0.3-1.8,1.1-3.3,2.6-4.4c2-1.5,3.8-2,5.3-1.4C57.8,1486.8,60,1488.2,62.8,1490.3z"></path>
	<path class="kxxunqy8" d="M189.3,1468.4c-2.4,3.9-5,7.2-7.7,9.7c-2.7,2.5-6,4.5-10,6c-3.6,1.4-7.1,1.8-10.4,1.4
		c-3.3-0.4-6.1-1.6-8.5-3.5c-2.4-1.9-4.1-4.3-5.2-7.2c-1.4-3.9-1.4-7.6,0-11.3c1.4-3.6,4.1-6.7,8.1-9.3c0.8-0.5,2.9-1.8,6.2-3.9
		c3.3-2.1,6.1-3.9,8.4-5.4c2.3-1.6,4.8-3.3,7.4-5.3c-1.6-3.7-3.3-6.1-5.3-7.4c-2-1.2-5.1-1.1-9.2,0.5c-3.6,1.3-6.1,2.8-7.6,4.5
		c-1.4,1.7-2.4,3.8-3,6.2c-0.5,2.5-1,4.2-1.3,5c-0.3,0.8-1.3,1.6-3.1,2.2c-1.6,0.6-3.2,0.6-4.7,0c-1.5-0.6-2.6-1.7-3.2-3.3
		c-0.9-2.5-0.9-5.2-0.1-8.2c0.9-3,2.9-6,6.1-8.9c3.2-2.9,7.5-5.4,13.1-7.5c6.2-2.3,11.4-3.4,15.5-3.3c4.1,0.1,7.5,1.5,10.1,4.2
		c2.7,2.6,5,6.6,6.9,11.8c1.2,3.3,2.3,6.1,3.1,8.5c0.8,2.3,1.8,4.9,2.8,7.8c1,2.7,2.5,5.3,4.4,7.8c2,2.6,3.1,4.3,3.4,5.1
		c0.5,1.5,0.4,3-0.6,4.7c-0.9,1.7-2.2,2.9-4,3.5c-1.5,0.5-3.1,0.4-5.1-0.4C194.1,1471.9,191.8,1470.4,189.3,1468.4z M180.7,1448.3
		c-1.8,1.5-4.5,3.5-8.2,5.8c-3.6,2.3-6.1,4-7.5,4.9c-1.4,1-2.5,2.3-3.5,4c-1,1.7-1,3.5-0.3,5.6c0.8,2.1,2.3,3.7,4.5,4.6
		c2.2,0.9,4.6,0.9,7.2-0.1c2.8-1,5.2-2.6,7.1-4.7c1.9-2.1,3.1-4.3,3.4-6.7c0.5-2.6-0.2-6.4-2-11.3L180.7,1448.3z"></path>
	<path class="kxxunqy8" d="M209.6,1400.8c-2,0.5-3.9,0.3-5.7-0.7c-1.7-0.9-2.9-2.5-3.4-4.8c-0.5-2.1-0.1-4,1-5.7
		c1.2-1.7,2.8-2.8,4.7-3.2c1.9-0.4,3.7-0.2,5.5,0.6c1.8,0.9,2.9,2.5,3.5,4.8c0.5,2.3,0.2,4.2-0.9,5.8
		C213.1,1399.3,211.6,1400.3,209.6,1400.8z M220.4,1414.3l10,42.5c0.7,2.9,0.5,5.3-0.5,7.2c-1,1.8-2.6,3-4.8,3.5
		c-2.2,0.5-4.1,0.1-5.8-1.1c-1.7-1.2-2.9-3.3-3.6-6.2l-9.9-42.1c-0.7-2.9-0.5-5.3,0.5-7c1-1.8,2.6-2.9,4.7-3.4
		c2.2-0.5,4.1-0.2,5.9,1C218.6,1409.8,219.8,1411.7,220.4,1414.3z"></path>
	<path class="kxxunqy8" d="M237.8,1403.4l1.6-0.3l-1.4-9c-0.4-2.4-0.6-4.3-0.7-5.7s0.1-2.6,0.5-3.7c0.4-1.1,1.1-2.1,2.1-2.9
		c1-0.8,2.2-1.3,3.5-1.5c1.9-0.3,3.7,0.2,5.5,1.3c1.2,0.8,2,1.8,2.5,3.2c0.5,1.3,0.9,3.2,1.3,5.8l1.6,10.2l5.5-0.8
		c2.1-0.3,3.8-0.1,5.1,0.8c1.3,0.8,2,2,2.3,3.6c0.3,2-0.3,3.5-1.7,4.6c-1.5,1-3.7,1.8-6.6,2.3l-2.8,0.4l4.3,27.4
		c0.4,2.3,0.7,4.1,1.1,5.3c0.4,1.2,1,2.2,1.8,2.9c0.8,0.7,2,0.9,3.7,0.6c0.9-0.1,2-0.5,3.5-1c1.4-0.5,2.6-0.9,3.4-1
		c1.2-0.2,2.4,0.1,3.5,0.9c1.1,0.8,1.8,1.9,2,3.4c0.4,2.4-0.7,4.4-3.1,6.1c-2.4,1.7-6.1,2.9-11,3.7c-4.7,0.7-8.3,0.5-11-0.7
		c-2.6-1.2-4.6-3.1-5.7-5.8c-1.2-2.7-2.1-6.3-2.8-10.9l-4.4-28.6l-2,0.3c-2.2,0.3-3.9,0.1-5.2-0.8c-1.3-0.8-2.1-2.1-2.3-3.6
		c-0.2-1.6,0.1-2.9,1.2-4.1C233.9,1404.5,235.6,1403.7,237.8,1403.4z"></path>
	<path class="kxxunqy8" d="M308.5,1395.5l3.6-0.1l-0.1-4.5c-0.2-4.7,0.3-8.5,1.4-11.3c1.1-2.8,3.1-4.9,5.9-6.3c2.8-1.4,6.7-2.1,11.7-2.3
		c8.8-0.3,13.3,1.7,13.4,6c0,1.4-0.4,2.6-1.3,3.6c-0.9,1-2,1.6-3.2,1.6c-0.6,0-1.6-0.1-3.1-0.2c-1.4-0.2-2.7-0.2-3.7-0.2
		c-2.7,0.1-4.5,0.9-5.2,2.6c-0.7,1.6-1,3.9-0.9,6.9l0.1,3.6l3.7-0.1c5.8-0.2,8.7,1.5,8.8,4.9c0.1,2.5-0.6,4.1-2.1,4.8
		c-1.5,0.7-3.6,1.1-6.3,1.2l-3.7,0.1l1.3,40c0.1,3-0.5,5.3-1.9,6.9s-3.2,2.5-5.4,2.5c-2.1,0.1-3.9-0.7-5.4-2.2
		c-1.5-1.5-2.3-3.8-2.4-6.8l-1.3-40l-4.1,0.1c-2.2,0.1-4-0.4-5.2-1.4c-1.2-1-1.9-2.3-2-3.9C301,1397.5,303.4,1395.6,308.5,1395.5z"></path>
	<path class="kxxunqy8" d="M404.2,1426.3c-0.2,4.5-1.1,8.6-2.7,12.3c-1.6,3.7-3.8,6.9-6.5,9.5c-2.8,2.6-6,4.5-9.8,5.8
		c-3.8,1.3-7.9,1.8-12.5,1.6c-4.6-0.2-8.6-1.1-12.2-2.8c-3.6-1.6-6.6-3.9-9.2-6.8c-2.5-2.9-4.4-6.2-5.6-10c-1.2-3.8-1.7-8-1.5-12.5
		c0.2-4.6,1.1-8.7,2.7-12.4c1.6-3.7,3.7-6.9,6.5-9.4c2.7-2.6,6-4.5,9.8-5.8c3.8-1.3,7.9-1.8,12.4-1.6c4.6,0.2,8.7,1.1,12.3,2.8
		c3.7,1.6,6.7,3.9,9.3,6.7c2.5,2.9,4.4,6.2,5.6,10C403.9,1417.5,404.4,1421.7,404.2,1426.3z M389,1425.5c0.3-6.2-0.8-11-3.4-14.6
		s-6.1-5.4-10.7-5.6c-2.9-0.1-5.6,0.5-7.9,1.9c-2.3,1.4-4.2,3.6-5.5,6.5c-1.4,2.9-2.1,6.4-2.3,10.4c-0.2,3.9,0.3,7.4,1.3,10.4
		c1.1,3,2.7,5.3,4.8,7c2.2,1.7,4.7,2.6,7.8,2.7c4.6,0.2,8.3-1.3,11.2-4.7C387.2,1436.3,388.7,1431.6,389,1425.5z"></path>
	<path class="kxxunqy8" d="M430.5,1438.7l-1.6,12.5c-0.4,3-1.4,5.2-3,6.6s-3.5,1.9-5.7,1.6c-2.2-0.3-3.8-1.3-5-3s-1.6-4.1-1.2-7.1
		l5.3-41.7c0.9-6.7,3.7-9.8,8.6-9.2c2.5,0.3,4.2,1.3,5.1,3c0.9,1.7,1.2,4.1,0.9,7.2c2.2-2.8,4.3-4.9,6.4-6.3
		c2.1-1.3,4.7-1.8,7.8-1.4c3.1,0.4,6.1,1.6,8.9,3.5c2.8,2,4,4.2,3.6,6.8c-0.2,1.8-1.1,3.3-2.5,4.3c-1.4,1-2.9,1.4-4.3,1.3
		c-0.5-0.1-1.8-0.6-3.8-1.5c-2-0.9-3.8-1.5-5.4-1.7c-2.2-0.3-4.1,0.1-5.6,1c-1.5,1-2.8,2.5-3.9,4.7c-1.1,2.2-1.9,4.8-2.6,7.9
		C431.7,1430.4,431.1,1434.2,430.5,1438.7z"></path>
</g>
<g>
	<path class="kxxunqy8" d="M98.1,49.1h16.4c3.7-0.1,7.4,0.3,11,1.2c3.1,0.8,5.9,2.3,8.3,4.5c6.5,5.5,9.7,13.9,9.7,25.3
		c0,3.4-0.3,6.9-1,10.2c-0.6,2.9-1.6,5.7-3,8.3c-1.4,2.5-3.1,4.7-5.2,6.6c-1.6,1.5-3.5,2.7-5.5,3.6c-2,0.9-4.2,1.6-6.4,2
		c-2.5,0.4-5.1,0.6-7.7,0.5H98.3c-1.8,0.1-3.6-0.2-5.2-1c-1.1-0.6-1.9-1.7-2.3-2.9c-0.4-1.6-0.6-3.2-0.5-4.9V56.8
		c0-2.7,0.6-4.7,1.8-5.9S95.3,49.1,98.1,49.1z M102.9,59.1v42.2h9.5c2.1,0,3.7-0.1,4.9-0.2c1.3-0.1,2.5-0.4,3.7-0.8
		c1.2-0.4,2.3-1.1,3.3-2c4.2-3.6,6.3-9.7,6.3-18.4c0-6.1-0.9-10.7-2.8-13.8c-1.8-3-4.1-5-6.8-5.9c-3.2-0.9-6.5-1.3-9.8-1.2
		L102.9,59.1z"></path>
	<path class="kxxunqy8" d="M181.8,48c5.8-0.2,11.5,1.2,16.6,3.9c4.6,2.5,8.2,6.4,10.5,11.1c2.5,5.3,3.7,11.1,3.6,17
		c0.1,4.4-0.6,8.9-2,13.1c-1.2,3.8-3.2,7.3-5.9,10.2c-2.6,2.9-5.9,5.2-9.6,6.6c-8.4,3.1-17.7,3.1-26.1-0.1c-3.7-1.4-7-3.7-9.6-6.6
		c-2.7-3-4.6-6.5-5.9-10.3c-1.3-4.2-2-8.6-2-13c0-4.5,0.7-8.9,2.1-13.1c1.2-3.8,3.3-7.2,5.9-10.2c2.6-2.8,5.9-5,9.5-6.4
		C173.2,48.7,177.5,48,181.8,48z M199.7,80c0.1-4.1-0.7-8.1-2.2-11.8c-1.3-3.1-3.5-5.7-6.3-7.6c-2.8-1.7-6.1-2.6-9.4-2.6
		c-2.4,0-4.8,0.5-7,1.4c-2.1,0.9-4,2.4-5.5,4.1c-1.7,2-2.9,4.4-3.6,6.9c-0.9,3.1-1.4,6.3-1.3,9.5c0,3.2,0.4,6.5,1.3,9.6
		c0.8,2.6,2,5,3.8,7.1c1.5,1.8,3.4,3.2,5.6,4.2c5.1,2.2,11,1.8,15.8-1c2.9-1.8,5.1-4.4,6.4-7.5C199,88.5,199.9,84.3,199.7,80
		L199.7,80z"></path>
</g>
</svg>