<!--?xml version="1.0" encoding="utf-8"?-->
<!-- Generator: Adobe Illustrator 24.1.2, SVG Export Plug-In . SVG Version: 6.00 Build 0)  -->
<svg version="1.1" id="Layer_1" xmlns="http://www.w3.org/2000/svg" xmlns:xlink="http://www.w3.org/1999/xlink" x="0px" y="0px" viewBox="0 0 972 1745.3" style="enable-background:new 0 0 972 1745.3;" xml:space="preserve">
<style type="text/css"> .kvs7ge4g {fill:#49247F; }
 .kvs7ge4h {fill:#B779B3; }
 .kvs7ge4i {fill:undefined; stroke:#FFFFFF; stroke-width:2; stroke-miterlimit:10; }
 .kvs7ge4j {fill:#FFFFFF; }
 .kvs7ge4k {fill:undefined; stroke:#FFFFFF; stroke-width:4; stroke-miterlimit:10; }
 .kvs7ge4l {fill:undefined; stroke:#B779B3; stroke-width:5; stroke-miterlimit:10; }
</style>
<g id="Layer_2_1_">
	<g id="Layer_4">
		<path class="kvs7ge4g" d="M84.7,0h802.6C934.1,0,972,37.9,972,84.7v1575.9c0,46.8-37.9,84.7-84.7,84.7H84.7
			c-46.8,0-84.7-37.9-84.7-84.7V84.7C0,37.9,37.9,0,84.7,0z"></path>
		<path class="kvs7ge4h" d="M608.3,1215.5c-1.5,30.6-64.6,55.4-102.7,59.9c-60.5,7.2-96.6-18.6-113.3-56.6c-4.1-9.3,0.9-15.7,1.5-15.7
			c99.6,56.8,155.6,34.8,189.6,0.1C585.9,1202.4,608.5,1211.7,608.3,1215.5z"></path>
		<path class="kvs7ge4i" d="M379.1,1013.6c0,0-9.1,37.1,24.8,54.5c23.5,12.1,43.8,9.1,70.4-4.4"></path>
		<path class="kvs7ge4i" d="M424.6,1093.1c0,0-0.7-18.5-18.8-22c-12.6-2.5-21.6,1.6-32.1,11.5"></path>
		<path class="kvs7ge4j" d="M387.2,937.8c0,6.5,20.1-4.7,37.5,4.1s20.5,31.2,25.5,27.8c9.9-6.7-0.6-33.8-18-42.6S387.2,926.1,387.2,937.8
			z"></path>
		<path class="kvs7ge4j" d="M486.7,988.7c-1.9,6.2,20.6,1.2,34.8,14.6c14.2,13.4,10.7,35.8,16.6,33.9c11.4-3.6,9-32.6-5.2-46
			S490.1,977.5,486.7,988.7z"></path>
		<circle cx="434.5" cy="948.7" r="9.4"></circle>
		<circle cx="529.5" cy="1012.4" r="9.4"></circle>
		<path class="kvs7ge4h" d="M655.1,704.5c-44.6,44.9-65,157.1-67,164.8s-4.8,30.3-5.3,30.1c-2.6-1.2-2.7-1.4-5.3-2.6
			c-0.4-0.2-0.9-8.8,3.6-30.6c11.3-47.5,16.5-107.9,68.2-165.4c18.5-20.6,41.6-19.7,41.6-19.7c49.9-58.7-19.9-153.5-86.6-109.5
			c-20,13.2-58.4,98.8-61.7,105.2s-29.1,67.9-35.4,101c-3.1,16.3-10,65.7-10.4,66c-2.3,2.1-6.8-1.1-6.7-3.5
			c-0.5-0.3,2.6-31.2,12.2-75.2s58-139.9,67.9-159.1c0.5-21.1-11.4-34.3-34-39.8c-19.3-5.4-28.3,1.9-41.9,10.6
			c-14.3,9.1-54.3,71.3-70.3,170.5c-13,81-9.3,117.4-72.7,159.5c0,0-9.5-43.6-21.5-81.5C275,661.6,95.4,802,160.4,872.4
			c4,5.2,63,23.2,63,23.2s37.4,12.2,61,49.8c11.1,17.8-4.7,83.8,0.9,120.6c11.2,72.6,50.8,105.5,102.1,124.7
			c0.6,0.2,5.8-12.7,6-13.4c6.8-23.1-9.9-40.6,8.8-56.1c5-2.5,2.3,1,0.5,3.5c-7,9.6-4.5,24.3-3.5,31.9
			c4.2,50.3,121.5,99.6,199.7,21.8c113.3-202.2-14.4-96.7,136.2-406.1C773.7,693,693.4,668.4,655.1,704.5z M450.2,969.8
			c-5.1,3.4-8.1-19-25.5-27.8s-37.6,2.4-37.5-4.1c0.1-11.7,27.6-19.5,45-10.7S460.2,963,450.2,969.8z M538,1037.3
			c-5.8,1.8-2.4-20.5-16.6-33.9s-36.7-8.4-34.8-14.6c3.4-11.2,32-10.8,46.2,2.6S549.5,1033.7,538,1037.3L538,1037.3z"></path>
		<path class="kvs7ge4k" d="M511.9,1047.9c0,0-82.7,18.8-29.3,84"></path>
		<path class="kvs7ge4k" d="M389.5,981.9c0,0,13.3,71.4-56.2,51.6"></path>
		<path class="kvs7ge4l" d="M114.3,192.7h742.6c46.8,0,84.7,37.9,84.7,84.7v1282.1c0,46.8-37.9,84.7-84.7,84.7H114.3
			c-46.8,0-84.7-37.9-84.7-84.7V277.4C29.6,230.6,67.5,192.7,114.3,192.7z"></path>
		<path class="kvs7ge4k" d="M389.1,1009.6c0,0-9.1,37.1,24.8,54.5c23.5,12.1,43.8,9.1,70.4-4.4"></path>
		<path class="kvs7ge4k" d="M434.6,1089.1c0,0-0.7-18.5-18.8-22c-12.6-2.5-21.6,1.6-32.1,11.5"></path>
	</g>
</g>
</svg>