<?xml version="1.0" encoding="utf-8" ?>
<!-- Generator: Adobe Illustrator 24.1.2, SVG Export Plug-In . SVG Version: 6.00 Build 0)  -->
<svg
  version="1.1"
  id="Layer_1"
  xmlns="http://www.w3.org/2000/svg"
  xmlns:xlink="http://www.w3.org/1999/xlink"
  x="0px"
  y="0px"
  viewBox="0 0 972 1745.3"
  style="enable-background:new 0 0 972 1745.3;"
  xml:space="preserve"
>
<style type="text/css">
	.light{fill:#33B44A;}
	.dark{fill:#002F24;}
</style>
<path
    class="light"
    d="M363.5,192.4c0,53.8-44.9,88.4-113.7,88.4c-26.4,0-38.6-6.1-38.8-6.2c-4.5,13.8-24.9,17.4-37.7,19.7
	c-0.3,0-0.6-0.2-0.6-0.5c0-0.2,0.1-0.5,0.3-0.6c13-5.6,30.7-18.3-1.4-39c-20.4-13.1-33.1-39.8-33.1-61.8
	c0-53.8,42.1-97.2,117.4-97.4C326.1,95.2,363.5,138.6,363.5,192.4"
  />
<path
    class="dark"
    d="M167.3,211.5l33.9-40.6h-29.1c-2,0-3.6-0.5-4.6-1.4c-1-0.9-1.6-2.1-1.6-3.6c0-1.5,0.5-2.8,1.6-3.7
	c1-0.9,2.6-1.4,4.6-1.4h37.6c4.9,0,7.3,2.3,7.3,6.8c0,2.2-0.4,3.9-1.2,5.2c-0.8,1.3-2.4,3.4-4.9,6.3l-31.7,37.7h35
	c2.1,0,3.6,0.4,4.6,1.3c1,0.9,1.5,2,1.5,3.6c0,1.6-0.5,2.9-1.5,3.8c-1,0.9-2.6,1.4-4.6,1.4h-42.9c-2.9,0-5.1-0.7-6.6-2
	c-1.5-1.3-2.2-3.1-2.2-5.2c0-0.8,0.1-1.4,0.4-2.1c0.2-0.6,0.6-1.2,1-1.8c0.4-0.6,1-1.3,1.7-2.1S166.8,212.1,167.3,211.5z"
  />
<path
    class="dark"
    d="M268.8,171.2h-30.1v16.2h27.7c2,0,3.6,0.5,4.6,1.4c1,0.9,1.5,2.1,1.5,3.6c0,1.5-0.5,2.7-1.5,3.7
	c-1,0.9-2.5,1.4-4.6,1.4h-27.7v18.8h31.2c2.1,0,3.7,0.5,4.8,1.5c1.1,1,1.6,2.3,1.6,3.9c0,1.6-0.5,2.8-1.6,3.8
	c-1.1,1-2.7,1.5-4.8,1.5h-36.4c-2.9,0-5-0.6-6.3-1.9c-1.3-1.3-1.9-3.4-1.9-6.3v-49.6c0-1.9,0.3-3.5,0.9-4.7c0.6-1.2,1.5-2.1,2.7-2.7
	c1.2-0.6,2.8-0.8,4.7-0.8h35.3c2.1,0,3.7,0.5,4.8,1.4c1,0.9,1.6,2.2,1.6,3.7c0,1.6-0.5,2.8-1.6,3.8
	C272.6,170.7,271,171.2,268.8,171.2z"
  />
<path
    class="dark"
    d="M344.3,200v12.7c0,1.7-0.2,3-0.5,4c-0.3,1-0.9,1.9-1.8,2.7c-0.9,0.8-2,1.6-3.4,2.3c-4,2.2-7.8,3.7-11.5,4.7
	c-3.7,1-7.7,1.5-12.1,1.5c-5.1,0-9.7-0.8-13.9-2.3c-4.2-1.6-7.7-3.8-10.7-6.8s-5.2-6.6-6.8-10.8c-1.6-4.2-2.4-9-2.4-14.2
	c0-5.1,0.8-9.8,2.3-14.1c1.5-4.3,3.8-7.9,6.8-10.9s6.6-5.2,10.9-6.8c4.3-1.6,9.1-2.4,14.5-2.4c4.4,0,8.4,0.6,11.8,1.8
	c3.4,1.2,6.2,2.7,8.3,4.5c2.1,1.8,3.7,3.7,4.8,5.7c1.1,2,1.6,3.8,1.6,5.4c0,1.7-0.6,3.1-1.9,4.3c-1.2,1.2-2.7,1.8-4.5,1.8
	c-1,0-1.9-0.2-2.8-0.7c-0.9-0.5-1.6-1.1-2.2-1.9c-1.7-2.6-3-4.5-4.2-5.9c-1.1-1.3-2.7-2.4-4.6-3.3s-4.4-1.4-7.4-1.4
	c-3.1,0-5.9,0.5-8.3,1.6c-2.4,1.1-4.5,2.6-6.2,4.6c-1.7,2-3,4.5-4,7.5c-0.9,2.9-1.4,6.2-1.4,9.8c0,7.7,1.8,13.7,5.3,17.9
	c3.6,4.2,8.5,6.3,14.9,6.3c3.1,0,6-0.4,8.7-1.2c2.7-0.8,5.5-2,8.3-3.5v-10.7h-10.4c-2.5,0-4.4-0.4-5.7-1.1c-1.3-0.8-1.9-2-1.9-3.8
	c0-1.5,0.5-2.7,1.6-3.6c1.1-1,2.5-1.4,4.3-1.4h15.2c1.9,0,3.4,0.2,4.7,0.5c1.3,0.3,2.3,1.1,3.1,2.2
	C343.9,196.1,344.3,197.8,344.3,200z"
  />
</svg>
