<?xml version="1.0" encoding="utf-8"?>
<!-- Generator: Adobe Illustrator 24.1.2, SVG Export Plug-In . SVG Version: 6.00 Build 0)  -->
<svg version="1.1" id="Layer_2" xmlns="http://www.w3.org/2000/svg" xmlns:xlink="http://www.w3.org/1999/xlink" x="0px" y="0px"
	 viewBox="0 0 972 1745.3" style="enable-background:new 0 0 972 1745.3;" xml:space="preserve">
<style type="text/css">
	.light{fill:#F9B2A7;}
	.dark{fill:#FF2B00;}
</style>
<g id="Layer_2_1_">
	<g id="Layer_4">
		<polygon class="light" points="283.6,61.6 260.3,114 207.9,79.5 219,136.8 152.4,128.3 192.1,172.2 132.1,194.9 192.1,217.7 
			152.4,261.6 222.7,247.6 207.9,310.4 260.3,264.9 283.6,328.3 306.9,264.9 359.3,310.4 348.1,253.1 414.7,261.6 371.4,217.7 
			435,194.9 371.4,172.2 414.7,128.3 348.1,136.8 359.3,79.5 306.9,114 		"/>
		<path class="dark" d="M230.9,162.7h16.8c3.8-0.1,7.6,0.3,11.3,1.2c3.2,0.8,6.1,2.4,8.5,4.6c6.7,5.7,10,14.3,10,25.9
			c0,3.5-0.3,7-1,10.5c-0.6,3-1.6,5.9-3.1,8.5c-1.4,2.5-3.2,4.8-5.4,6.8c-1.7,1.5-3.6,2.8-5.6,3.7c-2.1,1-4.3,1.6-6.5,2
			c-2.6,0.4-5.2,0.6-7.9,0.6h-16.8c-1.8,0.1-3.7-0.3-5.3-1.1c-1.1-0.7-2-1.7-2.3-3c-0.4-1.6-0.6-3.3-0.5-5v-46.8
			c0-2.8,0.6-4.8,1.9-6C226.1,163.4,228.1,162.7,230.9,162.7z M235.9,172.9v43.2h9.8c2.1,0,3.8-0.1,5-0.2c1.3-0.1,2.6-0.4,3.8-0.9
			c1.2-0.4,2.4-1.1,3.4-2c4.3-3.7,6.5-9.9,6.5-18.9c0-6.3-0.9-11-2.8-14.1s-4.2-5.1-7-6c-3.3-0.9-6.7-1.3-10.1-1.3L235.9,172.9z"/>
		<path class="dark" d="M316.8,161.6c5.9-0.2,11.8,1.2,17,4c4.7,2.6,8.4,6.6,10.8,11.4c2.5,5.4,3.8,11.4,3.6,17.4
			c0.1,4.6-0.6,9.1-2,13.4c-1.2,3.9-3.3,7.4-6,10.5c-2.7,3-6.1,5.3-9.8,6.8c-8.6,3.2-18.1,3.1-26.7-0.1c-3.8-1.5-7.1-3.8-9.9-6.8
			c-2.7-3.1-4.8-6.7-6-10.6c-1.4-4.3-2-8.8-2-13.3c0-4.6,0.7-9.1,2.2-13.4c1.3-3.9,3.4-7.4,6.1-10.4c2.7-2.9,6-5.1,9.7-6.6
			C308,162.3,312.4,161.5,316.8,161.6z M335.2,194.4c0.1-4.2-0.7-8.3-2.3-12.1c-1.3-3.2-3.6-5.9-6.5-7.8c-2.9-1.8-6.2-2.7-9.6-2.6
			c-2.5,0-4.9,0.5-7.1,1.4c-2.2,1-4.1,2.4-5.6,4.2c-1.7,2.1-3,4.5-3.7,7.1c-1,3.2-1.4,6.4-1.4,9.7c0,3.3,0.4,6.6,1.4,9.8
			c0.8,2.7,2.1,5.1,3.9,7.3c1.6,1.8,3.5,3.3,5.7,4.3c5.3,2.2,11.3,1.9,16.2-1c2.9-1.8,5.2-4.5,6.6-7.6
			C334.5,203.1,335.3,198.7,335.2,194.4L335.2,194.4z"/>
	</g>
</g>
</svg>
