<?xml version="1.0" encoding="utf-8" ?>
<!-- Generator: Adobe Illustrator 24.1.2, SVG Export Plug-In . SVG Version: 6.00 Build 0)  -->
<svg
  version="1.1"
  id="Layer_2_1_"
  xmlns="http://www.w3.org/2000/svg"
  xmlns:xlink="http://www.w3.org/1999/xlink"
  x="0px"
  y="0px"
  viewBox="0 0 972 1745.3"
  style="enable-background:new 0 0 972 1745.3;"
  xml:space="preserve"
>
<style type="text/css">
	.light{fill:#F9B2A7;}
	.dark{fill:#FF2B00;}
</style>
<rect x="627.3" y="150.6" class="light" width="211.7" height="88" />
<g>
	<path
      class="dark"
      d="M684.5,221l-10.4-17.1l-6.4,6.1v9.4c0,2.3-0.6,4-1.8,5.3c-1.2,1.2-2.6,1.8-4.1,1.8c-1.8,0-3.2-0.6-4.3-1.8
		c-1-1.2-1.6-3-1.6-5.4v-50.3c0-2.6,0.5-4.6,1.5-6c1-1.4,2.4-2.1,4.3-2.1c1.8,0,3.3,0.6,4.3,1.9c1.1,1.2,1.6,3.1,1.6,5.5v28.6
		l13.3-13.9c1.6-1.7,2.9-2.9,3.8-3.5c0.9-0.6,1.9-1,3.2-1c1.5,0,2.7,0.5,3.7,1.4c1,0.9,1.5,2.1,1.5,3.5c0,1.7-1.6,4-4.8,6.9L682,196
		l12.1,19c0.9,1.4,1.5,2.5,1.9,3.2c0.4,0.7,0.6,1.4,0.6,2.1c0,1.9-0.5,3.4-1.5,4.4c-1,1.1-2.4,1.6-4,1.6c-1.4,0-2.6-0.4-3.3-1.2
		C686.9,224.4,685.8,223,684.5,221z"
    />
	<path
      class="dark"
      d="M709.6,172.9c-1.6,0-3-0.5-4.2-1.5c-1.2-1-1.8-2.4-1.8-4.3c0-1.7,0.6-3,1.8-4.1c1.2-1.1,2.6-1.6,4.2-1.6
		c1.5,0,2.9,0.5,4.1,1.5c1.2,1,1.8,2.4,1.8,4.3c0,1.8-0.6,3.2-1.7,4.3C712.6,172.4,711.2,172.9,709.6,172.9z M715.5,185.1v34.1
		c0,2.4-0.6,4.2-1.7,5.4c-1.1,1.2-2.5,1.8-4.3,1.8s-3.1-0.6-4.2-1.9s-1.6-3-1.6-5.3v-33.8c0-2.3,0.5-4.1,1.6-5.3s2.5-1.8,4.2-1.8
		s3.2,0.6,4.3,1.8C714.9,181.3,715.5,183,715.5,185.1z"
    />
	<path
      class="dark"
      d="M760.6,205.3h-23.1c0,2.7,0.6,5,1.6,7.1c1.1,2,2.4,3.6,4.2,4.6c1.7,1,3.7,1.6,5.8,1.6c1.4,0,2.7-0.2,3.9-0.5
		c1.2-0.3,2.3-0.8,3.4-1.6c1.1-0.7,2.1-1.5,3-2.3c0.9-0.8,2.1-1.9,3.6-3.3c0.6-0.5,1.5-0.8,2.6-0.8c1.2,0,2.2,0.3,2.9,1
		c0.7,0.7,1.1,1.6,1.1,2.8c0,1.1-0.4,2.3-1.3,3.7s-2.1,2.8-3.8,4.1c-1.7,1.3-3.8,2.4-6.4,3.3c-2.5,0.9-5.5,1.3-8.8,1.3
		c-7.6,0-13.5-2.2-17.7-6.5s-6.3-10.2-6.3-17.6c0-3.5,0.5-6.7,1.6-9.7c1-3,2.6-5.5,4.5-7.7c2-2.1,4.4-3.8,7.3-4.9
		c2.9-1.1,6.1-1.7,9.7-1.7c4.6,0,8.6,1,11.9,2.9c3.3,1.9,5.8,4.5,7.4,7.5c1.6,3.1,2.5,6.2,2.5,9.4c0,3-0.9,4.9-2.6,5.8
		C766.1,204.8,763.7,205.3,760.6,205.3z M737.5,198.6h21.4c-0.3-4-1.4-7.1-3.3-9.1c-1.9-2-4.4-3-7.5-3c-2.9,0-5.4,1-7.2,3
		S737.9,194.6,737.5,198.6z"
    />
	<path
      class="dark"
      d="M818.3,210.9c0,3.3-0.8,6-2.4,8.4c-1.6,2.3-3.9,4.1-7,5.3c-3.1,1.2-6.9,1.8-11.3,1.8c-4.2,0-7.9-0.6-10.9-1.9
		c-3-1.3-5.3-2.9-6.7-4.9c-1.4-1.9-2.2-3.9-2.2-5.9c0-1.3,0.5-2.4,1.4-3.3c0.9-0.9,2.1-1.4,3.5-1.4c1.2,0,2.2,0.3,2.9,0.9
		c0.7,0.6,1.3,1.5,1.9,2.6c1.2,2.1,2.7,3.7,4.3,4.7c1.7,1,4,1.6,6.9,1.6c2.4,0,4.3-0.5,5.8-1.6c1.5-1.1,2.3-2.3,2.3-3.6
		c0-2.1-0.8-3.6-2.4-4.5c-1.6-1-4.2-1.9-7.8-2.7c-4.1-1-7.4-2.1-9.9-3.2c-2.6-1.1-4.6-2.6-6.1-4.4c-1.5-1.8-2.3-4-2.3-6.7
		c0-2.4,0.7-4.6,2.1-6.7c1.4-2.1,3.5-3.8,6.2-5c2.8-1.3,6.1-1.9,10-1.9c3.1,0,5.8,0.3,8.2,1c2.4,0.6,4.5,1.5,6.1,2.6
		c1.6,1.1,2.9,2.2,3.7,3.5c0.8,1.3,1.3,2.6,1.3,3.8c0,1.4-0.5,2.5-1.4,3.3c-0.9,0.9-2.2,1.3-3.9,1.3c-1.2,0-2.2-0.3-3.1-1
		c-0.9-0.7-1.8-1.7-2.9-3.1c-0.9-1.2-1.9-2.1-3.2-2.8c-1.2-0.7-2.9-1-4.9-1c-2.1,0-3.9,0.5-5.3,1.4c-1.4,0.9-2.1,2-2.1,3.4
		c0,1.2,0.5,2.3,1.6,3c1,0.8,2.4,1.4,4.2,2c1.8,0.5,4.2,1.2,7.3,1.9c3.7,0.9,6.7,2,9,3.2c2.3,1.2,4.1,2.7,5.3,4.4
		C817.7,206.8,818.3,208.8,818.3,210.9z"
    />
</g>
</svg>
