<?xml version="1.0" encoding="utf-8" ?>
<!-- Generator: Adobe Illustrator 24.1.2, SVG Export Plug-In . SVG Version: 6.00 Build 0)  -->
<svg
  version="1.1"
  id="Layer_1"
  xmlns="http://www.w3.org/2000/svg"
  xmlns:xlink="http://www.w3.org/1999/xlink"
  x="0px"
  y="0px"
  viewBox="0 0 972 1745.3"
  style="enable-background:new 0 0 972 1745.3;"
  xml:space="preserve"
>
<style type="text/css">
	.light{fill:#FF2B00;}
	.dark{fill:#F9B2A7;}
</style>
<path
    class="dark"
    d="M84.7-2h802.6C934.1-2,972,35.9,972,82.7v1575.9c0,46.8-37.9,84.7-84.7,84.7H84.7c-46.8,0-84.7-37.9-84.7-84.7
	V82.7C0,35.9,37.9-2,84.7-2z"
  />
<path
    class="light"
    d="M856.9,1646.6H114.3c-48.1,0-87.2-39.1-87.2-87.2V277.3c0-48.1,39.1-87.2,87.2-87.2h742.6
	c48.1,0,87.2,39.1,87.2,87.2v1282.1C944.1,1607.5,905,1646.6,856.9,1646.6z M114.3,195.1c-45.3,0-82.2,36.9-82.2,82.2v1282.1
	c0,45.3,36.9,82.2,82.2,82.2h742.6c45.3,0,82.2-36.9,82.2-82.2V277.3c0-45.3-36.9-82.2-82.2-82.2L114.3,195.1L114.3,195.1z"
  />
</svg>
