<?xml version="1.0" encoding="utf-8" ?>
<!-- Generator: Adobe Illustrator 24.1.2, SVG Export Plug-In . SVG Version: 6.00 Build 0)  -->
<svg
  version="1.1"
  id="Layer_2_1_"
  xmlns="http://www.w3.org/2000/svg"
  xmlns:xlink="http://www.w3.org/1999/xlink"
  x="0px"
  y="0px"
  viewBox="0 0 972 1745.3"
  style="enable-background:new 0 0 972 1745.3;"
  xml:space="preserve"
>
<style type="text/css">
	.light{fill:#F9B2A7;}
	.dark{fill:#FF2B00;}
</style>
<g>
	<polygon
      class="light"
      points="363.2,1720.3 214.2,1646.4 363.2,1572.6 335.6,1611.4 749,1605.6 749,1687.3 335.6,1681.4 	"
    />
	<g>
		<path
        class="dark"
        d="M358.7,1649.5c0,1.6-0.4,3-1.2,4.2c-0.8,1.2-2,2-3.5,2.6c-1.5,0.6-3.4,0.9-5.6,0.9c-2.1,0-3.9-0.3-5.4-1
			c-1.5-0.6-2.6-1.5-3.3-2.4c-0.7-1-1.1-1.9-1.1-2.9c0-0.6,0.2-1.2,0.7-1.7c0.5-0.5,1-0.7,1.7-0.7c0.6,0,1.1,0.2,1.4,0.5
			c0.3,0.3,0.6,0.7,0.9,1.3c0.6,1,1.3,1.8,2.2,2.3c0.8,0.5,2,0.8,3.4,0.8c1.2,0,2.1-0.3,2.9-0.8c0.8-0.5,1.1-1.1,1.1-1.8
			c0-1-0.4-1.8-1.2-2.3c-0.8-0.5-2.1-0.9-3.9-1.4c-2-0.5-3.7-1-4.9-1.6s-2.3-1.3-3-2.2c-0.8-0.9-1.1-2-1.1-3.3
			c0-1.2,0.4-2.3,1.1-3.3c0.7-1,1.7-1.9,3.1-2.5c1.4-0.6,3-0.9,5-0.9c1.5,0,2.9,0.2,4.1,0.5c1.2,0.3,2.2,0.7,3,1.3s1.4,1.1,1.8,1.8
			c0.4,0.6,0.6,1.3,0.6,1.9c0,0.7-0.2,1.2-0.7,1.7c-0.5,0.4-1.1,0.6-1.9,0.6c-0.6,0-1.1-0.2-1.5-0.5c-0.4-0.3-0.9-0.9-1.5-1.5
			c-0.4-0.6-1-1-1.6-1.4c-0.6-0.3-1.4-0.5-2.5-0.5c-1.1,0-1.9,0.2-2.6,0.7c-0.7,0.5-1.1,1-1.1,1.7c0,0.6,0.3,1.1,0.8,1.5
			c0.5,0.4,1.2,0.7,2.1,1c0.9,0.3,2.1,0.6,3.6,0.9c1.8,0.4,3.3,1,4.5,1.6c1.2,0.6,2,1.3,2.6,2.2
			C358.4,1647.4,358.7,1648.4,358.7,1649.5z"
      />
		<path
        class="dark"
        d="M366.2,1636.9l3.8,13.1l3.5-12.2c0.4-1.3,0.6-2.1,0.8-2.6s0.5-0.9,1-1.3c0.5-0.4,1.2-0.6,2-0.6
			c0.9,0,1.6,0.2,2.1,0.6s0.8,0.9,1,1.4c0.2,0.5,0.5,1.4,0.8,2.6l3.5,12.2l3.9-13.1c0.3-0.9,0.5-1.6,0.6-2.1
			c0.2-0.4,0.4-0.8,0.8-1.1c0.4-0.3,0.9-0.5,1.6-0.5s1.3,0.2,1.8,0.7c0.5,0.5,0.8,1.1,0.8,1.7c0,0.6-0.2,1.5-0.7,2.7l-4.8,14.1
			c-0.4,1.2-0.7,2.1-1,2.6c-0.2,0.5-0.6,1-1.1,1.4s-1.2,0.6-2,0.6c-0.9,0-1.6-0.2-2.1-0.7c-0.5-0.4-0.9-1-1.1-1.6s-0.5-1.5-0.8-2.5
			l-3.4-11.4l-3.2,11.4c-0.4,1.6-0.9,2.8-1.4,3.6c-0.5,0.8-1.4,1.2-2.6,1.2c-0.6,0-1.2-0.1-1.6-0.4s-0.8-0.6-1.1-1.1
			c-0.3-0.5-0.6-1-0.8-1.7c-0.2-0.6-0.4-1.1-0.5-1.5l-4.8-14.1c-0.5-1.3-0.7-2.2-0.7-2.7c0-0.6,0.3-1.2,0.8-1.7s1.1-0.8,1.8-0.8
			c1,0,1.6,0.3,2,0.8C365.5,1634.6,365.8,1635.6,366.2,1636.9z"
      />
		<path
        class="dark"
        d="M401.3,1630.5c-0.8,0-1.5-0.3-2.1-0.8c-0.6-0.5-0.9-1.2-0.9-2.1c0-0.8,0.3-1.5,0.9-2.1
			c0.6-0.5,1.3-0.8,2.1-0.8c0.8,0,1.4,0.2,2,0.7s0.9,1.2,0.9,2.1c0,0.9-0.3,1.6-0.9,2.1C402.8,1630.3,402.1,1630.5,401.3,1630.5z
			 M404.2,1636.6v17c0,1.2-0.3,2.1-0.8,2.7c-0.6,0.6-1.3,0.9-2.1,0.9s-1.6-0.3-2.1-0.9c-0.5-0.6-0.8-1.5-0.8-2.6v-16.8
			c0-1.2,0.3-2,0.8-2.6c0.5-0.6,1.2-0.9,2.1-0.9s1.6,0.3,2.1,0.9S404.2,1635.6,404.2,1636.6z"
      />
		<path
        class="dark"
        d="M415.7,1636.6v0.7c1.1-1.4,2.3-2.4,3.4-3c1.2-0.6,2.5-1,4-1c1.8,0,3.5,0.5,5,1.4c1.5,0.9,2.7,2.3,3.6,4.1
			c0.9,1.8,1.3,3.9,1.3,6.4c0,1.8-0.3,3.5-0.8,5s-1.2,2.8-2.1,3.8c-0.9,1-1.9,1.8-3.2,2.4c-1.2,0.6-2.5,0.8-3.9,0.8
			c-1.7,0-3.1-0.3-4.2-1c-1.1-0.7-2.2-1.7-3.3-3v8.8c0,2.6-0.9,3.9-2.8,3.9c-1.1,0-1.8-0.3-2.2-1c-0.4-0.7-0.5-1.6-0.5-2.9v-25.3
			c0-1.1,0.2-2,0.7-2.5s1.2-0.8,2-0.8c0.8,0,1.5,0.3,2,0.8S415.7,1635.5,415.7,1636.6z M427.2,1645.1c0-1.5-0.2-2.9-0.7-4
			s-1.1-2-2-2.6s-1.8-0.9-2.8-0.9c-1.6,0-3,0.6-4.1,1.9s-1.7,3.2-1.7,5.6c0,2.3,0.6,4.2,1.7,5.5c1.1,1.3,2.5,1.9,4.1,1.9
			c1,0,1.9-0.3,2.7-0.8c0.8-0.6,1.5-1.4,2-2.5S427.2,1646.7,427.2,1645.1z"
      />
		<path
        class="dark"
        d="M454.2,1646.6h-11.5c0,1.3,0.3,2.5,0.8,3.5c0.5,1,1.2,1.8,2.1,2.3c0.9,0.5,1.8,0.8,2.9,0.8
			c0.7,0,1.3-0.1,1.9-0.2s1.1-0.4,1.7-0.8s1-0.7,1.5-1.1s1.1-0.9,1.8-1.6c0.3-0.3,0.7-0.4,1.3-0.4c0.6,0,1.1,0.2,1.5,0.5
			c0.4,0.3,0.6,0.8,0.6,1.4c0,0.5-0.2,1.2-0.6,1.9s-1,1.4-1.9,2s-1.9,1.2-3.2,1.6c-1.3,0.4-2.7,0.6-4.4,0.6c-3.8,0-6.7-1.1-8.8-3.2
			c-2.1-2.2-3.1-5.1-3.1-8.8c0-1.7,0.3-3.3,0.8-4.8c0.5-1.5,1.3-2.8,2.3-3.8c1-1.1,2.2-1.9,3.7-2.4s3.1-0.8,4.8-0.8
			c2.3,0,4.3,0.5,5.9,1.5c1.6,1,2.9,2.2,3.7,3.8s1.2,3.1,1.2,4.7c0,1.5-0.4,2.4-1.3,2.9C456.9,1646.4,455.8,1646.6,454.2,1646.6z
			 M442.7,1643.3h10.6c-0.1-2-0.7-3.5-1.6-4.5c-0.9-1-2.2-1.5-3.7-1.5c-1.5,0-2.7,0.5-3.6,1.5
			C443.5,1639.8,442.9,1641.3,442.7,1643.3z"
      />
		<path
        class="dark"
        d="M480.4,1636.5v0.7c1-1.4,2.2-2.4,3.4-3s2.6-1,4.2-1c1.5,0,2.9,0.3,4.2,1s2.1,1.6,2.7,2.9
			c0.4,0.7,0.6,1.5,0.8,2.3c0.1,0.8,0.2,1.9,0.2,3.2v10.9c0,1.2-0.3,2.1-0.8,2.7c-0.5,0.6-1.2,0.9-2.1,0.9c-0.9,0-1.6-0.3-2.1-0.9
			c-0.5-0.6-0.8-1.5-0.8-2.6v-9.8c0-1.9-0.3-3.4-0.8-4.4s-1.6-1.5-3.2-1.5c-1,0-2,0.3-2.9,0.9c-0.9,0.6-1.5,1.5-1.9,2.6
			c-0.3,0.9-0.4,2.5-0.4,4.9v7.4c0,1.2-0.3,2.1-0.8,2.7c-0.6,0.6-1.3,0.9-2.1,0.9c-0.8,0-1.5-0.3-2.1-0.9c-0.5-0.6-0.8-1.5-0.8-2.6
			v-17c0-1.1,0.2-2,0.7-2.5c0.5-0.6,1.2-0.8,2-0.8c0.5,0,1,0.1,1.4,0.4c0.4,0.2,0.7,0.6,1,1.1
			C480.2,1635.2,480.4,1635.8,480.4,1636.5z"
      />
		<path
        class="dark"
        d="M516.5,1653.8c-1.4,1.1-2.8,1.9-4.1,2.5s-2.8,0.8-4.5,0.8c-1.5,0-2.8-0.3-4-0.9c-1.1-0.6-2-1.4-2.6-2.4
			c-0.6-1-0.9-2.1-0.9-3.3c0-1.6,0.5-3,1.5-4.1c1-1.1,2.4-1.9,4.2-2.3c0.4-0.1,1.3-0.3,2.8-0.6c1.5-0.3,2.7-0.6,3.8-0.8
			c1.1-0.3,2.2-0.6,3.4-0.9c-0.1-1.5-0.4-2.7-0.9-3.4c-0.6-0.7-1.7-1.1-3.4-1.1c-1.5,0-2.6,0.2-3.4,0.6s-1.4,1-1.9,1.9
			c-0.5,0.8-0.9,1.4-1.1,1.6c-0.2,0.3-0.7,0.4-1.4,0.4c-0.7,0-1.2-0.2-1.7-0.6s-0.7-1-0.7-1.6c0-1,0.4-2,1.1-3
			c0.7-1,1.9-1.8,3.4-2.4s3.5-0.9,5.8-0.9c2.6,0,4.6,0.3,6.1,0.9c1.5,0.6,2.5,1.6,3.1,2.9s0.9,3.1,0.9,5.2c0,1.4,0,2.5,0,3.5
			s0,2,0,3.2c0,1.1,0.2,2.3,0.5,3.5c0.4,1.2,0.5,2,0.5,2.3c0,0.6-0.3,1.2-0.8,1.6c-0.6,0.5-1.2,0.7-1.9,0.7c-0.6,0-1.2-0.3-1.8-0.8
			S517.1,1654.9,516.5,1653.8z M516.1,1645.3c-0.9,0.3-2.1,0.6-3.8,1c-1.6,0.4-2.8,0.6-3.4,0.8c-0.6,0.2-1.2,0.5-1.8,1
			c-0.6,0.5-0.9,1.2-0.9,2c0,0.9,0.3,1.6,1,2.3c0.7,0.6,1.6,0.9,2.6,0.9c1.2,0,2.2-0.3,3.2-0.8c1-0.5,1.7-1.2,2.2-2
			c0.5-0.9,0.8-2.4,0.8-4.4V1645.3z"
      />
		<path
        class="dark"
        d="M544.7,1636.8v19.9c0,1.4,0,2.6-0.1,3.5c-0.1,0.9-0.2,1.5-0.4,1.9c-1,2.5-3,3.7-6.2,3.7c-1.8,0-3.1-0.2-4-0.7
			c-0.9-0.5-1.4-1.2-1.4-2.1c0-0.7,0.2-1.3,0.6-1.7s1-0.7,1.6-0.7c0.1,0,0.2,0,0.4,0c0.2,0,0.5,0,0.9,0.1c0.4,0,0.6,0,0.8,0
			c0.8,0,1.3-0.3,1.6-0.9c0.3-0.6,0.4-1.7,0.4-3.3v-19.8c0-1.2,0.3-2,0.8-2.6s1.3-0.9,2.2-0.9c0.9,0,1.6,0.3,2.1,0.9
			C544.5,1634.7,544.7,1635.6,544.7,1636.8z M541.8,1630.5c-0.8,0-1.5-0.3-2.1-0.8c-0.6-0.5-0.9-1.2-0.9-2.1c0-0.8,0.3-1.5,0.9-2.1
			c0.6-0.5,1.3-0.8,2.1-0.8c0.8,0,1.4,0.2,2,0.7s0.9,1.2,0.9,2.1c0,0.9-0.3,1.6-0.9,2.1S542.6,1630.5,541.8,1630.5z"
      />
		<path
        class="dark"
        d="M567.1,1646.6h-11.5c0,1.3,0.3,2.5,0.8,3.5c0.5,1,1.2,1.8,2.1,2.3c0.9,0.5,1.8,0.8,2.9,0.8
			c0.7,0,1.3-0.1,1.9-0.2c0.6-0.2,1.1-0.4,1.7-0.8s1-0.7,1.5-1.1s1.1-0.9,1.8-1.6c0.3-0.3,0.7-0.4,1.3-0.4c0.6,0,1.1,0.2,1.5,0.5
			c0.4,0.3,0.6,0.8,0.6,1.4c0,0.5-0.2,1.2-0.6,1.9s-1,1.4-1.9,2s-1.9,1.2-3.2,1.6c-1.3,0.4-2.7,0.6-4.4,0.6c-3.8,0-6.7-1.1-8.8-3.2
			c-2.1-2.2-3.1-5.1-3.1-8.8c0-1.7,0.3-3.3,0.8-4.8c0.5-1.5,1.3-2.8,2.3-3.8c1-1.1,2.2-1.9,3.7-2.4c1.4-0.6,3.1-0.8,4.8-0.8
			c2.3,0,4.3,0.5,5.9,1.5c1.6,1,2.9,2.2,3.7,3.8s1.2,3.1,1.2,4.7c0,1.5-0.4,2.4-1.3,2.9C569.9,1646.4,568.7,1646.6,567.1,1646.6z
			 M555.7,1643.3h10.6c-0.1-2-0.7-3.5-1.6-4.5c-0.9-1-2.2-1.5-3.7-1.5c-1.5,0-2.7,0.5-3.6,1.5
			C556.4,1639.8,555.9,1641.3,555.7,1643.3z"
      />
		<path
        class="dark"
        d="M593.4,1627.9v9c1.1-1.1,2.2-2,3.4-2.6s2.6-0.9,4.3-0.9c2,0,3.7,0.5,5.1,1.4s2.6,2.3,3.4,4
			c0.8,1.8,1.2,3.8,1.2,6.2c0,1.8-0.2,3.4-0.7,4.9c-0.5,1.5-1.1,2.8-2,3.9s-1.9,1.9-3.1,2.5c-1.2,0.6-2.6,0.9-4.1,0.9
			c-0.9,0-1.8-0.1-2.5-0.3s-1.5-0.5-2-0.8c-0.6-0.4-1-0.7-1.4-1.1s-0.9-0.9-1.6-1.7v0.6c0,1.1-0.3,1.9-0.8,2.5
			c-0.5,0.6-1.2,0.8-2,0.8c-0.8,0-1.5-0.3-2-0.8c-0.5-0.6-0.7-1.4-0.7-2.5v-25.6c0-1.2,0.2-2.1,0.7-2.7s1.2-0.9,2-0.9
			c0.9,0,1.6,0.3,2.1,0.9C593.1,1626,593.4,1626.8,593.4,1627.9z M593.6,1645.3c0,2.3,0.5,4.1,1.6,5.4c1.1,1.3,2.5,1.9,4.2,1.9
			c1.5,0,2.8-0.6,3.8-1.9c1.1-1.3,1.6-3.1,1.6-5.5c0-1.5-0.2-2.9-0.7-4c-0.4-1.1-1.1-2-1.9-2.6c-0.8-0.6-1.8-0.9-2.9-0.9
			c-1.1,0-2.1,0.3-3,0.9c-0.9,0.6-1.6,1.5-2.1,2.6C593.9,1642.4,593.6,1643.7,593.6,1645.3z"
      />
		<path
        class="dark"
        d="M631.9,1646.6h-11.5c0,1.3,0.3,2.5,0.8,3.5c0.5,1,1.2,1.8,2.1,2.3c0.9,0.5,1.8,0.8,2.9,0.8
			c0.7,0,1.3-0.1,1.9-0.2c0.6-0.2,1.1-0.4,1.7-0.8s1-0.7,1.5-1.1s1.1-0.9,1.8-1.6c0.3-0.3,0.7-0.4,1.3-0.4c0.6,0,1.1,0.2,1.5,0.5
			c0.4,0.3,0.6,0.8,0.6,1.4c0,0.5-0.2,1.2-0.6,1.9s-1,1.4-1.9,2s-1.9,1.2-3.2,1.6c-1.3,0.4-2.7,0.6-4.4,0.6c-3.8,0-6.7-1.1-8.8-3.2
			c-2.1-2.2-3.1-5.1-3.1-8.8c0-1.7,0.3-3.3,0.8-4.8c0.5-1.5,1.3-2.8,2.3-3.8c1-1.1,2.2-1.9,3.7-2.4c1.4-0.6,3.1-0.8,4.8-0.8
			c2.3,0,4.3,0.5,5.9,1.5c1.6,1,2.9,2.2,3.7,3.8s1.2,3.1,1.2,4.7c0,1.5-0.4,2.4-1.3,2.9C634.6,1646.4,633.4,1646.6,631.9,1646.6z
			 M620.4,1643.3H631c-0.1-2-0.7-3.5-1.6-4.5c-0.9-1-2.2-1.5-3.7-1.5c-1.5,0-2.7,0.5-3.6,1.5
			C621.1,1639.8,620.6,1641.3,620.4,1643.3z"
      />
		<path
        class="dark"
        d="M656.9,1653.8v-0.8c-0.7,0.9-1.4,1.6-2.2,2.2c-0.8,0.6-1.6,1-2.5,1.3s-2,0.4-3.1,0.4c-1.4,0-2.7-0.3-3.8-0.9
			c-1.1-0.6-2-1.4-2.6-2.4c-0.7-1.2-1.1-3-1.1-5.4v-11.6c0-1.2,0.3-2.1,0.8-2.6c0.5-0.6,1.2-0.9,2.1-0.9c0.9,0,1.6,0.3,2.2,0.9
			s0.8,1.5,0.8,2.6v9.4c0,1.4,0.1,2.5,0.3,3.4s0.6,1.6,1.2,2.2c0.6,0.5,1.4,0.8,2.4,0.8c1,0,1.9-0.3,2.8-0.9
			c0.9-0.6,1.5-1.4,1.9-2.3c0.3-0.8,0.5-2.7,0.5-5.5v-7.1c0-1.2,0.3-2,0.8-2.6s1.3-0.9,2.1-0.9c0.9,0,1.6,0.3,2.1,0.9
			c0.5,0.6,0.8,1.5,0.8,2.6v17c0,1.1-0.3,2-0.8,2.5c-0.5,0.6-1.2,0.8-2,0.8c-0.8,0-1.5-0.3-2-0.9
			C657.2,1655.7,656.9,1654.9,656.9,1653.8z"
      />
		<path
        class="dark"
        d="M674.1,1648.7v4.9c0,1.2-0.3,2.1-0.8,2.7c-0.6,0.6-1.3,0.9-2.1,0.9c-0.8,0-1.5-0.3-2.1-0.9
			c-0.5-0.6-0.8-1.5-0.8-2.7v-16.3c0-2.6,1-4,2.9-4c1,0,1.7,0.3,2.1,0.9c0.4,0.6,0.7,1.5,0.7,2.7c0.7-1.2,1.4-2.1,2.2-2.7
			s1.7-0.9,3-0.9c1.2,0,2.4,0.3,3.6,0.9c1.2,0.6,1.7,1.4,1.7,2.5c0,0.7-0.2,1.3-0.7,1.8c-0.5,0.5-1,0.7-1.6,0.7
			c-0.2,0-0.7-0.1-1.6-0.4s-1.6-0.4-2.2-0.4c-0.9,0-1.6,0.2-2.1,0.7c-0.5,0.5-1,1.1-1.3,2c-0.3,0.9-0.5,1.9-0.6,3.2
			C674.1,1645.4,674.1,1646.9,674.1,1648.7z"
      />
		<path
        class="dark"
        d="M688.4,1633.8h0.6v-3.5c0-0.9,0-1.7,0.1-2.2c0-0.5,0.2-1,0.4-1.4c0.2-0.4,0.6-0.7,1-1
			c0.4-0.3,0.9-0.4,1.4-0.4c0.7,0,1.4,0.3,2,0.8c0.4,0.4,0.7,0.8,0.8,1.4c0.1,0.5,0.2,1.3,0.2,2.3v4h2.2c0.8,0,1.5,0.2,1.9,0.6
			c0.4,0.4,0.7,0.9,0.7,1.5c0,0.8-0.3,1.3-0.9,1.7c-0.6,0.3-1.5,0.5-2.7,0.5h-1.1v10.8c0,0.9,0,1.6,0.1,2.1c0.1,0.5,0.2,0.9,0.5,1.2
			c0.3,0.3,0.7,0.5,1.4,0.5c0.3,0,0.8-0.1,1.4-0.2c0.6-0.1,1-0.2,1.4-0.2c0.5,0,0.9,0.2,1.3,0.6s0.6,0.8,0.6,1.4
			c0,0.9-0.5,1.7-1.5,2.2s-2.5,0.8-4.5,0.8c-1.8,0-3.2-0.3-4.2-0.9c-0.9-0.6-1.6-1.5-1.9-2.6s-0.4-2.5-0.4-4.4V1638h-0.8
			c-0.8,0-1.5-0.2-1.9-0.6c-0.4-0.4-0.7-0.9-0.7-1.5s0.2-1.1,0.7-1.5S687.5,1633.8,688.4,1633.8z"
      />
		<path
        class="dark"
        d="M705.6,1642.9l-0.7-10.3c-0.1-2-0.2-3.4-0.2-4.3c0-1.2,0.3-2.1,0.9-2.8c0.6-0.7,1.4-1,2.5-1
			c1.2,0,2.1,0.4,2.5,1.3c0.4,0.9,0.6,2.1,0.6,3.7c0,0.9-0.1,1.9-0.2,2.9l-0.9,10.6c-0.1,1.3-0.3,2.2-0.6,2.9s-0.9,1-1.6,1
			c-0.8,0-1.3-0.3-1.6-1C706,1645.3,705.7,1644.3,705.6,1642.9z M708,1657.1c-0.9,0-1.6-0.3-2.3-0.8c-0.7-0.6-1-1.4-1-2.4
			c0-0.9,0.3-1.6,0.9-2.3c0.6-0.6,1.4-0.9,2.3-0.9s1.7,0.3,2.3,0.9c0.6,0.6,1,1.4,1,2.3c0,1-0.3,1.8-1,2.4S708.9,1657.1,708,1657.1z
			"
      />
	</g>
</g>
</svg>
