<?xml version="1.0" encoding="utf-8"?>
<!-- Generator: Adobe Illustrator 24.1.2, SVG Export Plug-In . SVG Version: 6.00 Build 0)  -->
<svg version="1.1" id="Layer_2" xmlns="http://www.w3.org/2000/svg" xmlns:xlink="http://www.w3.org/1999/xlink" x="0px" y="0px"
	 viewBox="0 0 972 1745.3" style="enable-background:new 0 0 972 1745.3;" xml:space="preserve">
<style type="text/css">
	.light{fill:#F9B2A7;}
	.dark{fill:#FF2B00;}
</style>
<rect x="504" y="150.6" class="light" width="335" height="88"/>
<path class="dark" d="M561.7,210.8c0,1.7-0.5,3.3-1.3,4.7c-1,1.8-2.4,3.5-4,4.8c-2,1.6-4.3,2.9-6.8,3.7c-3,1-6.1,1.4-9.3,1.4
	c-7.3,0-13.1-2.1-17.2-6.4c-4.1-4.3-6.2-10-6.2-17.2c-0.1-4.5,0.9-8.9,2.8-12.9c1.8-3.6,4.6-6.7,8.2-8.7c3.9-2.1,8.3-3.2,12.8-3.1
	c2.9,0,5.7,0.4,8.5,1.3c2.4,0.8,4.6,2,6.5,3.5c1.6,1.2,3,2.8,4.1,4.5c0.9,1.3,1.3,2.9,1.4,4.5c0,1.4-0.6,2.7-1.6,3.6
	c-1,1-2.4,1.5-3.8,1.5c-0.9,0-1.7-0.2-2.5-0.8c-0.8-0.7-1.6-1.5-2.2-2.4c-1.2-1.9-2.7-3.6-4.5-5c-4.8-2.9-10.9-1.8-14.4,2.5
	c-2.2,2.7-3.2,6.5-3.2,11.2c0,2.1,0.3,4.2,0.8,6.1c0.5,1.7,1.3,3.4,2.4,4.8c1,1.3,2.3,2.3,3.8,3c1.5,0.7,3.2,1,4.9,1
	c2.2,0.1,4.3-0.5,6.1-1.6c1.9-1.3,3.4-3,4.5-5c0.6-1.2,1.4-2.2,2.3-3.1c0.8-0.8,1.9-1.2,3.1-1.1c1.4,0,2.7,0.6,3.6,1.6
	C561.2,208.2,561.7,209.5,561.7,210.8z"/>
<path class="dark" d="M581.4,166.8v17.6c1.3-1.5,2.8-2.9,4.4-4.1c1.5-1,3.1-1.8,4.8-2.3c1.8-0.5,3.7-0.8,5.6-0.8
	c2.8-0.1,5.5,0.6,8,1.9c3.8,2.2,6.4,6,7.2,10.3c0.3,2,0.5,4,0.4,6.1v22.7c0.1,1.9-0.4,3.9-1.6,5.4c-1.1,1.2-2.7,1.9-4.3,1.8
	c-3.9,0-5.9-2.4-5.9-7.2v-20c0-3.8-0.6-6.7-1.7-8.8c-1.1-2-3.3-3.1-6.4-3.1c-2,0-4,0.6-5.7,1.8c-1.7,1.2-3,2.9-3.8,4.9
	c-0.7,1.8-1,4.9-1,9.4v15.7c0.1,1.9-0.4,3.8-1.6,5.4c-1.1,1.3-2.7,1.9-4.4,1.9c-3.9,0-5.9-2.4-5.9-7.2v-51.5
	c-0.1-1.9,0.4-3.8,1.5-5.4c1.1-1.2,2.7-1.9,4.3-1.8c1.7-0.1,3.3,0.6,4.4,1.8C580.9,163,581.5,164.9,581.4,166.8z"/>
<path class="dark" d="M668,201.4c0,3.3-0.5,6.6-1.7,9.8c-1,2.9-2.7,5.5-4.8,7.7c-2.1,2.2-4.7,3.8-7.5,4.9c-3.1,1.2-6.4,1.8-9.8,1.7
	c-3.3,0.1-6.6-0.5-9.7-1.7c-5.7-2.3-10.2-6.9-12.2-12.6c-1.1-3.1-1.7-6.4-1.6-9.8c0-3.4,0.5-6.7,1.7-9.9c1-2.9,2.6-5.5,4.7-7.6
	c2.1-2.2,4.7-3.8,7.5-4.9c6.3-2.3,13.2-2.3,19.5,0c5.7,2.2,10.2,6.8,12.3,12.6C667.5,194.7,668,198,668,201.4z M656.1,201.4
	c0-4.8-1.1-8.6-3.2-11.3c-2.1-2.6-5.3-4.1-8.6-4c-2.2,0-4.3,0.6-6.1,1.8c-1.9,1.3-3.3,3.2-4.1,5.3c-1.9,5.3-1.9,11.1,0,16.3
	c0.8,2.1,2.2,4,4,5.3c1.8,1.3,4,1.9,6.2,1.9c3.4,0.1,6.6-1.4,8.6-4.1C655,209.9,656.1,206.1,656.1,201.4L656.1,201.4z"/>
<path class="dark" d="M721.7,201.4c0,3.3-0.5,6.6-1.7,9.8c-1,2.9-2.7,5.5-4.8,7.7c-2.1,2.2-4.7,3.8-7.5,4.9
	c-3.1,1.2-6.4,1.8-9.8,1.7c-3.3,0.1-6.6-0.5-9.7-1.7c-5.7-2.3-10.2-6.9-12.2-12.6c-1.1-3.1-1.7-6.4-1.6-9.8c0-3.4,0.5-6.7,1.7-9.9
	c1-2.9,2.6-5.5,4.7-7.6c2.1-2.2,4.7-3.8,7.5-4.9c6.3-2.3,13.2-2.3,19.5,0c5.7,2.2,10.2,6.8,12.3,12.6
	C721.2,194.7,721.8,198,721.7,201.4z M709.8,201.4c0-4.8-1.1-8.6-3.2-11.3c-2.1-2.6-5.2-4.1-8.6-4c-2.2,0-4.3,0.6-6.1,1.8
	c-1.9,1.3-3.3,3.2-4.1,5.3c-1.9,5.3-1.9,11.1,0,16.3c0.8,2.1,2.2,4,4,5.3c1.8,1.3,4,1.9,6.2,1.9c3.3,0.1,6.5-1.4,8.6-4.1
	C708.7,209.9,709.8,206.1,709.8,201.4L709.8,201.4z"/>
<path class="dark" d="M769.3,210c0.3,6.2-3.6,11.8-9.5,13.7c-3.6,1.3-7.5,1.9-11.4,1.8c-3.8,0.1-7.5-0.6-11-2c-2.6-1-5-2.7-6.7-4.9
	c-1.3-1.7-2.1-3.7-2.2-5.9c0-1.3,0.5-2.5,1.4-3.4c0.9-0.9,2.2-1.4,3.6-1.4c1-0.1,2.1,0.3,2.9,0.9c0.8,0.7,1.4,1.6,1.9,2.6
	c2.1,4.2,6.6,6.7,11.3,6.3c2.1,0.1,4.1-0.5,5.8-1.6c1.3-0.7,2.2-2.1,2.3-3.6c0.1-1.8-0.8-3.6-2.4-4.6c-2.5-1.3-5.1-2.2-7.8-2.7
	c-3.4-0.8-6.8-1.9-10-3.2c-2.4-1-4.5-2.5-6.1-4.4c-1.6-1.9-2.4-4.3-2.3-6.7c0-2.4,0.8-4.8,2.1-6.7c1.6-2.2,3.8-4,6.3-5.1
	c3.2-1.3,6.6-2,10-1.9c2.8,0,5.6,0.3,8.3,1c2.2,0.5,4.2,1.4,6.1,2.6c1.5,0.9,2.8,2.1,3.7,3.6c0.8,1.1,1.2,2.4,1.3,3.8
	c0,1.3-0.5,2.5-1.4,3.4c-1.1,0.9-2.5,1.4-3.9,1.3c-1.1,0-2.2-0.3-3.1-1c-1.1-0.9-2.1-2-2.9-3.1c-0.9-1.1-1.9-2.1-3.2-2.8
	c-1.5-0.8-3.3-1.1-5-1.1c-1.9-0.1-3.7,0.4-5.3,1.4c-1.3,0.7-2.1,2-2.1,3.4c0,1.2,0.6,2.4,1.6,3.1c1.3,0.9,2.7,1.6,4.2,2
	c1.8,0.5,4.2,1.1,7.3,1.9c3.1,0.7,6.1,1.8,9,3.2c2.1,1,3.9,2.6,5.3,4.4C768.6,205.9,769.3,207.9,769.3,210z"/>
<path class="dark" d="M812.4,204.3h-23.2c0,2.5,0.5,4.9,1.6,7.1c1.8,3.8,5.7,6.3,10,6.2c1.3,0,2.6-0.2,3.9-0.5
	c1.2-0.3,2.4-0.9,3.4-1.6c1.1-0.7,2.1-1.4,3-2.3c0.9-0.8,2.1-1.9,3.6-3.3c0.7-0.6,1.7-0.9,2.6-0.8c1.1-0.1,2.2,0.3,3,1
	c0.8,0.7,1.2,1.8,1.1,2.8c-0.1,1.3-0.5,2.6-1.3,3.8c-1,1.6-2.3,3-3.8,4.1c-1.9,1.4-4.1,2.5-6.4,3.3c-2.9,0.9-5.8,1.4-8.8,1.3
	c-7.6,0-13.5-2.2-17.8-6.5c-4.2-4.3-6.3-10.2-6.3-17.7c0-3.3,0.5-6.6,1.6-9.8c1-2.9,2.5-5.5,4.6-7.7c2.1-2.2,4.6-3.9,7.4-4.9
	c3.1-1.2,6.4-1.8,9.7-1.7c4.2-0.1,8.3,0.9,11.9,2.9c3.1,1.8,5.7,4.4,7.5,7.6c1.6,2.9,2.5,6.2,2.5,9.5c0,3-0.9,4.9-2.6,5.8
	C817.4,203.9,814.9,204.4,812.4,204.3z M789.2,197.5h21.5c-0.3-4.1-1.4-7.1-3.3-9.1c-2-2-4.7-3.1-7.5-3c-2.8-0.1-5.4,1-7.3,3.1
	C790.8,190.5,789.6,193.5,789.2,197.5L789.2,197.5z"/>
</svg>
