<svg xmlns="http://www.w3.org/2000/svg" viewBox="0 0 972 1745.31"><defs><style>.cls-1{fill:#ff2b00;}.cls-2{fill:none;stroke:#f9b2a7;stroke-miterlimit:10;stroke-width:5px;}.cls-3{fill:#f9b2a7;}</style></defs><title>Asset 25</title><g id="Layer_2" data-name="Layer 2"><g id="Layer_4" data-name="Layer 4"><rect class="cls-1" width="972" height="1745.31" rx="84.69"/><rect class="cls-2" x="29.58" y="194.59" width="912" height="1451.5" rx="84.69"/><polygon class="cls-3" points="486.38 1561.24 470.83 1594.71 435.82 1572.67 443.26 1609.28 398.81 1603.86 425.27 1631.91 385.25 1646.48 425.27 1661.05 398.81 1689.1 445.71 1680.15 435.82 1720.3 470.83 1691.18 486.38 1731.72 501.91 1691.18 536.93 1720.3 529.49 1683.69 573.94 1689.1 545.03 1661.05 587.49 1646.48 545.03 1631.91 573.94 1603.86 529.49 1609.28 536.93 1572.67 501.91 1594.71 486.38 1561.24"/><polygon class="cls-3" points="283.58 61.63 260.3 113.96 207.87 79.49 219.02 136.75 152.44 128.28 192.07 172.16 132.15 194.95 192.07 217.72 152.44 261.61 222.69 247.61 207.87 310.39 260.3 264.86 283.58 328.26 306.85 264.86 359.29 310.39 348.14 253.14 414.71 261.61 371.41 217.72 435 194.95 371.41 172.16 414.71 128.28 348.14 136.75 359.29 79.49 306.85 113.96 283.58 61.63"/><path class="cls-1" d="M230.92,162.68h16.82A45.36,45.36,0,0,1,259,163.89a20.59,20.59,0,0,1,8.52,4.57q10,8.5,9.95,25.9a50.58,50.58,0,0,1-1,10.47,30.77,30.77,0,0,1-3.08,8.54,26.48,26.48,0,0,1-5.35,6.8,21.91,21.91,0,0,1-5.6,3.69,25.46,25.46,0,0,1-6.54,2,49.5,49.5,0,0,1-7.89.56H231.18a10.52,10.52,0,0,1-5.3-1.06,5,5,0,0,1-2.33-3,19.16,19.16,0,0,1-.54-5V170.58q0-4.17,1.87-6T230.92,162.68Zm5,10.21v43.24h9.78q3.21,0,5-.18a15.31,15.31,0,0,0,3.78-.87,10.31,10.31,0,0,0,3.39-2q6.46-5.48,6.47-18.86,0-9.44-2.84-14.12t-7-6a34.77,34.77,0,0,0-10.08-1.28Z"/><path class="cls-1" d="M316.84,161.59a34,34,0,0,1,17,4A26,26,0,0,1,344.6,177a38.86,38.86,0,0,1,3.65,17.4,42.65,42.65,0,0,1-2,13.43,29.16,29.16,0,0,1-6,10.47,26.14,26.14,0,0,1-9.82,6.78,38.72,38.72,0,0,1-26.73-.06,26.57,26.57,0,0,1-9.86-6.8,29.11,29.11,0,0,1-6-10.56,42.57,42.57,0,0,1-2-13.34A41.11,41.11,0,0,1,288,180.88a29,29,0,0,1,6.1-10.43,26.5,26.5,0,0,1,9.74-6.58A35.06,35.06,0,0,1,316.84,161.59Zm18.33,32.77a29.84,29.84,0,0,0-2.26-12.13,16.84,16.84,0,0,0-6.45-7.76,17.73,17.73,0,0,0-9.62-2.62,17.41,17.41,0,0,0-7.15,1.45,15.63,15.63,0,0,0-5.65,4.24,20.15,20.15,0,0,0-3.74,7.1,32.24,32.24,0,0,0-1.37,9.72,33,33,0,0,0,1.37,9.82,20.12,20.12,0,0,0,3.87,7.28,16.36,16.36,0,0,0,5.73,4.32,18.17,18.17,0,0,0,16.21-1,17.12,17.12,0,0,0,6.61-7.65A29.52,29.52,0,0,0,335.17,194.36Z"/></g></g></svg>