<?xml version="1.0" encoding="utf-8"?>
<!-- Generator: Adobe Illustrator 21.0.0, SVG Export Plug-In . SVG Version: 6.00 Build 0)  -->
<svg version="1.1" id="Layer_1" xmlns="http://www.w3.org/2000/svg" xmlns:xlink="http://www.w3.org/1999/xlink" x="0px" y="0px"
	 viewBox="0 0 612 612" style="enable-background:new 0 0 612 612;" xml:space="preserve" preserveAspectRatio="none">
<g>
	<g>
		<path d="M598.7,331.6c6.2,11.7,8.2,25.2,4.6,38.5c-3.7,13.2-12.3,24-23.7,30.8c-11.4,6.8-25.5,9.7-39.6,6.5
			c-0.2,0.8-0.3,1.5-0.5,2.3c14.2,3.2,25.7,11.8,33,23.2c7.2,11.4,10.2,25.7,6.3,41.6c-2,7.9-5.7,15.5-10.6,22.1
			c-5,6.6-11.3,12.2-18.2,15.9c-3.5,1.9-7,3.2-10.7,4.1c-1.8,0.4-3.6,0.7-5.4,0.9c-1.8,0.2-3.6,0.2-5.4,0.1
			c-1.8-0.1-3.5-0.3-5.2-0.7c-1.7-0.4-3.4-0.9-5.1-1.5c-3.3-1.2-6.4-2.9-9.5-4.9c-0.4,0.7-0.8,1.3-1.3,1.9
			c5.9,4.2,10.7,9.5,13.6,16.1c0.7,1.6,1.3,3.4,1.8,5.2c0.2,0.9,0.4,1.8,0.6,2.8c0.1,0.9,0.3,1.9,0.3,2.8c0.2,1.9,0.2,3.9,0.1,6
			c-0.2,2-0.5,4.1-1,6.2c-1.9,8.4-6.7,17.3-13.7,24.6c-7,7.4-16,13.3-25.5,16.8c-9.5,3.5-18.6,4.4-26.7,3.6c-2-0.2-4-0.5-5.9-1
			c-1.9-0.4-3.8-0.9-5.5-1.6c-3.5-1.3-6.9-2.8-9.9-4.8c-12.1-7.8-19.5-20.3-21.3-34.8c-0.8,0.1-1.5,0.2-2.3,0.3
			c0.8,7.3,0.1,14.4-2,21c-2.1,6.6-5.6,12.7-10.3,17.9c-9.3,10.4-23.1,17.2-38.4,17.7c-15.3,0.5-29-5.3-38.7-14.8
			c-1.2-1.2-2.4-2.5-3.5-3.8c-0.5-0.7-1.1-1.3-1.6-2c-0.1-0.1-0.1-0.2-0.2-0.3l-0.3-0.3l-0.6-0.5c-0.4-0.3-0.8-0.7-1.1-1
			c-2.9-2.8-5.1-5.8-6.5-9c-2.9-7.1-3.1-14.4-1.7-21.6v0c-0.8-0.2-1.5-0.4-2.2-0.5v0c-3.4,14.2-12,25.8-23.1,33.1
			c-11,7.3-24.5,10.6-38.2,7.9c-13.7-2.7-25.4-10.7-33.1-21.8c-7.7-11.1-11.3-25.2-8.8-39.6c-0.8-0.1-1.5-0.3-2.3-0.4
			c-2.5,14.4-10.6,26.5-22,34c-5.7,3.8-12.3,6.5-19.6,7.7s-15.3,0.9-23.7-1.4c-8.4-2.3-16.4-6.4-23.1-12
			c-6.8-5.5-12.3-12.4-15.6-19.8c-1.7-3.6-2.8-7.5-3.4-11.1c-0.6-3.7-0.6-7.4-0.1-10.9c1-7.1,4.1-13.5,8.6-19.3
			c-0.6-0.5-1.2-1-1.8-1.5c-4.6,5.6-10.3,10-16.9,12.4c-1.7,0.6-3.4,1.1-5.2,1.4c-1.8,0.3-3.6,0.5-5.5,0.6
			c-3.8,0.1-7.7-0.4-11.8-1.5c-8-2.2-16.2-7.1-23-13.9c-6.9-6.8-12.3-15.4-15.6-24.7c-3.3-9.3-4.3-18.3-3.5-26.4
			c0.5-4,1.2-7.9,2.5-11.5c0.6-1.8,1.3-3.5,2.1-5.2c0.8-1.7,1.7-3.3,2.6-4.8c1-1.5,2-3,3-4.4c1.1-1.4,2.3-2.7,3.5-3.9
			c2.5-2.5,5.2-4.6,8.1-6.5c5.9-3.7,12.5-6.1,19.7-7c-0.1-0.8-0.2-1.5-0.3-2.3c-7.2,0.9-14.3,0.3-20.8-1.8c-3.3-1-6.4-2.4-9.4-4.1
			c-3-1.7-5.8-3.8-8.4-6.1C9.4,383.2,2.6,369.2,2,353.8c-0.6-15.5,5.2-29.4,14.6-39.3c9.5-10,22.7-15.8,37.2-15.7c0-0.8,0-1.6,0-2.3
			c-14.5-0.1-27.6-6.2-37-16.1c-9.3-9.9-14.9-23.8-14.3-39.2c0.7-15.4,7.6-29.4,18-38.6c5.3-4.7,11.3-8.1,17.9-10.2
			c6.6-2,13.6-2.6,20.8-1.6c0.1-0.8,0.2-1.5,0.3-2.3c-7.2-1-13.8-3.4-19.6-7.2c-5.8-3.8-10.8-8.8-14.4-15c-3.7-6.2-6.1-13.6-6.7-22
			c-0.6-8.3,0.6-17.6,4.6-27.3c3.9-9.6,10.2-18.6,17.9-25.3C49,84.8,57.9,80.5,66.3,79c2.1-0.4,4.1-0.6,6.1-0.7c2,0,4,0.1,5.9,0.3
			c1.9,0.2,3.7,0.6,5.5,1.2c1.8,0.5,3.4,1.2,5,2c6.4,3.2,11.5,8.2,15.5,14.3c0.6-0.4,1.3-0.8,1.9-1.3c-1.9-3.1-3.5-6.3-4.6-9.7
			c-1.1-3.3-1.8-6.9-1.9-10.4c-0.1-3.5,0.2-7.2,1.1-10.8c0.4-1.8,1-3.6,1.7-5.4c0.7-1.8,1.5-3.5,2.5-5.2c3.8-6.9,9.5-13.2,16.2-18.1
			c6.8-4.9,14.6-8.5,22.8-10.3c16.4-3.6,31.1,0.2,42.2,8.1c11.1,8,18.8,20.3,20.9,34.8c0.8-0.1,1.5-0.2,2.3-0.3
			c-2.1-14.5,1.9-28.5,10.1-39.3c8.1-10.9,20.2-18.5,34.2-20.7c14-2.1,27.5,1.7,38.3,9.6c5.5,4,9.6,9,14.9,14.5
			c1.1,1.4,2,2.9,2.8,4.5c0.8,1.6,1.5,3.3,2,5.1c1,3.5,1.6,7,1.7,10.7c0.8,0,1.5,0,2.3,0c0.1-14.6,6-27.9,15.9-37.3
			c9.8-9.5,23.5-15.2,38.6-14.6c15.1,0.6,28.9,7.3,38.1,17.7c2.3,2.6,4.4,5.4,6.1,8.4c1.7,3,3.1,6.2,4.2,9.5
			c2.1,6.6,2.9,13.7,2.1,21c0.8,0.1,1.5,0.2,2.3,0.3c0.8-7.3,3.1-14,6.6-20c3.5-5.9,8.3-11.1,14.3-15c5.9-4,13-6.7,20.8-7.8
			c7.9-1,16.7-0.4,25.9,2.6c9.2,3,17.9,8.1,24.9,14.8c7,6.6,12.2,14.7,14.8,22.8c0.6,2,1.1,4.1,1.5,6c0.3,2,0.5,4,0.5,5.9
			c0.1,3.8-0.6,7.6-1.6,10.9c-2.2,6.9-6.4,12.6-11.9,17.4c0.5,0.6,1,1.2,1.5,1.8c2.8-2.3,5.8-4.3,8.9-5.8c3.2-1.5,6.6-2.6,10-3.1
			c3.5-0.5,7.2-0.5,10.9,0.1c1.8,0.3,3.8,0.7,5.6,1.3c1.8,0.6,3.7,1.3,5.6,2.2c7.3,3.4,14.3,9.1,19.8,16.1c5.5,7,9.5,15.2,11.7,23.8
			c2.2,8.6,2.4,16.7,1.1,24.1c-1.3,7.4-4.1,14-7.9,19.8c-7.8,11.4-19.9,19.3-34.3,21.5c0.1,0.8,0.2,1.5,0.3,2.3
			c14.4-2.2,28.2,1.8,39,10c10.8,8.2,18.5,20.4,20.6,34.6c2.1,14.2-1.7,27.8-9.5,38.7c-1,1.3-2,2.7-3.1,3.9l-0.8,0.9l-0.4,0.5
			c-0.1,0.2-0.3,0.5-0.4,0.7c-0.5,0.9-1.1,1.8-1.6,2.6c-2.3,3.3-4.8,5.9-7.7,7.9c-5.7,4-12.5,5.3-19.9,5c0.1,0.8,0.3,1.5,0.4,2.3
			c7.5,0.5,14.1,2.6,19.2,7.1c2.6,2.3,4.8,5.1,6.5,8.6c0.9,1.8,1.7,3.6,2.4,5.7c0.2,0.5,0.3,1.1,0.5,1.6c0.2,0.4,0.4,0.7,0.6,1.1
			C597.9,330.2,598.3,330.9,598.7,331.6z"/>
	</g>
</g>
</svg>
