<svg id="Layer_1" data-name="Layer 1" xmlns="http://www.w3.org/2000/svg" viewBox="0 0 972 1745.31"><defs>
<style>
.dark{fill:#002f24;}
.light{fill:#33b44a;}
<!-- .light,.light{stroke:#00f168;stroke-miterlimit:10;stroke-width:5px;} -->
.light{fill:#00f168;}
.light{fill:#fff;}
.light{fill:none;}
</style>
</defs><rect class="dark" width="972" height="1745.31" rx="84.69"/><path class="light" d="M140.2,1249.39H29.35L30.58,232.52c0-38.61,37.92-69.92,84.69-69.92H857.89c46.77,0,84.69,31.31,84.69,69.92v947.74c0,38.61-37.92,69.92-84.69,69.92H375.49S100.8,1675.54,717,1499.43l-129.79-20.14,332.89-51.56L874.68,1689.9,826.2,1560.52C-23.6,1941.58-31,1404.58,140.2,1249.39Z" transform="translate(0)"/><path class="light" d="M140.89,93A18.33,18.33,0,0,1,138,103.18a19.3,19.3,0,0,1-8.52,7.06,31.93,31.93,0,0,1-13.29,2.55q-9.23,0-15.21-3.49a20.32,20.32,0,0,1-6.9-6.68,15.27,15.27,0,0,1-2.65-8.13,5.53,5.53,0,0,1,5.47-5.58H97a4.77,4.77,0,0,1,3.37,1.28A9.91,9.91,0,0,1,102.77,94a25.17,25.17,0,0,0,2.57,5,10.38,10.38,0,0,0,3.91,3.29,14.18,14.18,0,0,0,6.57,1.29,14.84,14.84,0,0,0,9.11-2.6,7.83,7.83,0,0,0,3.51-6.52,6.87,6.87,0,0,0-1.89-5,12.14,12.14,0,0,0-4.88-2.93c-2-.68-4.66-1.39-8-2.17a58.3,58.3,0,0,1-11.23-3.67,18.2,18.2,0,0,1-7.18-5.73,15,15,0,0,1-2.66-9,15.56,15.56,0,0,1,2.81-9.12,17.57,17.57,0,0,1,8.11-6.14,33.17,33.17,0,0,1,12.5-2.2,30.84,30.84,0,0,1,9.91,1.42,20.92,20.92,0,0,1,7,3.78,15.91,15.91,0,0,1,4,4.94,11.32,11.32,0,0,1,1.27,5.06,5.92,5.92,0,0,1-1.59,4.05,5.09,5.09,0,0,1-4,1.81,4.58,4.58,0,0,1-3.29-1.09,14.32,14.32,0,0,1-2.44-3.54,16,16,0,0,0-4.08-5.5q-2.37-1.95-7.64-1.95a13.25,13.25,0,0,0-7.88,2.15,6.24,6.24,0,0,0-3,5.16,5.18,5.18,0,0,0,1,3.22,8.4,8.4,0,0,0,2.79,2.34,18.29,18.29,0,0,0,3.62,1.53q1.82.56,6,1.62a98.69,98.69,0,0,1,9.54,2.71,29.13,29.13,0,0,1,7.26,3.61,14.91,14.91,0,0,1,4.67,5.37A17.33,17.33,0,0,1,140.89,93Z" transform="translate(0)"/><path class="light" d="M191.43,104.68l-2.93-7.82H163.14l-2.93,8a28.07,28.07,0,0,1-2.93,6.31,4.75,4.75,0,0,1-4,1.64A5.91,5.91,0,0,1,149,111a5.3,5.3,0,0,1-1.83-3.91,9,9,0,0,1,.43-2.63c.29-.91.75-2.17,1.4-3.78L165,60.29c.45-1.16,1-2.55,1.63-4.18a21.43,21.43,0,0,1,2-4.06,8.2,8.2,0,0,1,2.85-2.61,10.33,10.33,0,0,1,8.74,0A8.47,8.47,0,0,1,183.08,52a18,18,0,0,1,1.82,3.38c.5,1.2,1.13,2.81,1.89,4.81l16.27,40.18c1.27,3.05,1.91,5.28,1.91,6.67a5.51,5.51,0,0,1-1.8,4,6,6,0,0,1-4.36,1.81,5.76,5.76,0,0,1-2.55-.54,5.17,5.17,0,0,1-1.78-1.44,13.75,13.75,0,0,1-1.62-2.87C192.3,106.75,191.82,105.64,191.43,104.68Zm-25-17.29H185L175.65,61.7Z" transform="translate(0)"/><path class="light" d="M222.56,105.1V85.35L207.35,61.78a49.62,49.62,0,0,1-2.82-5,7.6,7.6,0,0,1-.82-3.1A5,5,0,0,1,205.38,50a5.86,5.86,0,0,1,4.14-1.56,5.07,5.07,0,0,1,3.91,1.45,46.15,46.15,0,0,1,4,5.87l11.63,18.9,11.72-18.9,1.79-2.93a17.66,17.66,0,0,1,1.59-2.23,6.27,6.27,0,0,1,2-1.59,6.08,6.08,0,0,1,6.57,1,4.93,4.93,0,0,1,1.59,3.59,7.49,7.49,0,0,1-.81,3.31,44.29,44.29,0,0,1-2.76,4.59L235.1,85.37v19.75c0,2.6-.6,4.53-1.79,5.77a6.37,6.37,0,0,1-9,.08.3.3,0,0,1-.08-.08A8.77,8.77,0,0,1,222.56,105.1Z" transform="translate(0)"/><path class="light" d="M473.59,1410.15a36.72,36.72,0,0,1-7.41,14.7,40.67,40.67,0,0,1-13.57,10.54,61.43,61.43,0,0,1-19,5.54,36,36,0,0,1-16.65-1,14.25,14.25,0,0,1-8.69-6.79,13.08,13.08,0,0,1-1-9.47,12.25,12.25,0,0,1,3.66-5.94,11.17,11.17,0,0,1,6.23-3.13,4.6,4.6,0,0,1,4.21.9,10.08,10.08,0,0,1,1.95,3.93,12.36,12.36,0,0,0,5,7,16.21,16.21,0,0,0,10.44,1.11,21.6,21.6,0,0,0,10-4A12.56,12.56,0,0,0,454,1417c1-3.15.29-5.93-1.84-7.2a31.9,31.9,0,0,0-11.33-2.9,72.82,72.82,0,0,1-14.6-3.21,14.86,14.86,0,0,1-7.83-6.12c-1.69-2.85-2-6.72-.81-10.87a30.63,30.63,0,0,1,6.27-11.85,41.66,41.66,0,0,1,12.24-10,48.27,48.27,0,0,1,17-5.4,46.66,46.66,0,0,1,12.84-.21,21.43,21.43,0,0,1,8.62,3,11.59,11.59,0,0,1,4.47,5.2,9.86,9.86,0,0,1,.41,6.18,11.91,11.91,0,0,1-3.61,6,12.18,12.18,0,0,1-6.8,3,5.29,5.29,0,0,1-4.51-1.06,18,18,0,0,1-3.36-4.65,10.1,10.1,0,0,0-3.89-4,12.74,12.74,0,0,0-7.49-.66,20.47,20.47,0,0,0-9.13,3.47,11.31,11.31,0,0,0-4.89,6.24c-.55,2.07-.09,3.89,1.21,4.85a12.55,12.55,0,0,0,5.87,2.5c2.63.49,6.24,1.05,10.83,1.81a40.9,40.9,0,0,1,13.06,3.45,13.31,13.31,0,0,1,6.61,6.29A14.36,14.36,0,0,1,473.59,1410.15Z" transform="translate(0)"/><path class="light" d="M508.76,1364l1.08,43.1,21.79-43.17q3.45-6.81,4.91-9.29a20.79,20.79,0,0,1,4.39-5,13.44,13.44,0,0,1,7-3,7.17,7.17,0,0,1,6.13,1.24,7.48,7.48,0,0,1,2,4.27c.22,1.58.38,4.4.5,8.41l.74,40.08L581.2,1354c1.65-3.33,2.93-5.78,3.81-7.29a15.8,15.8,0,0,1,3.52-4.18,10.69,10.69,0,0,1,5.63-2.36,5.58,5.58,0,0,1,5.3,1.69,5.82,5.82,0,0,1,1,5.53,45.94,45.94,0,0,1-4.49,9.63l-27.64,50q-3.55,6.39-5.46,9.26a22.2,22.2,0,0,1-4.75,5.3,13.44,13.44,0,0,1-7,3,7,7,0,0,1-6.19-1.36,8.26,8.26,0,0,1-2.25-5.07c-.22-2.11-.37-4.83-.38-8.26l-1-37.57-20,40.63a78.46,78.46,0,0,1-7.64,12.93c-2.66,3.19-6.34,5.24-9.61,5.34a8.34,8.34,0,0,1-5-.57,5.87,5.87,0,0,1-2.73-3.16,20,20,0,0,1-1.16-5.31c-.2-2-.31-3.72-.41-4.93l-3.29-45.73a31,31,0,0,1,.06-9,12.86,12.86,0,0,1,3.9-6.14A12,12,0,0,1,502,1353c2.57-.68,4.77.06,5.76,2A32.32,32.32,0,0,1,508.76,1364Z" transform="translate(0)"/><path class="light" d="M627.92,1326.47a6.87,6.87,0,0,1-6.15-1.63c-2.77-3.33-1.24-9.64,3.4-14.09l.21-.19a14.16,14.16,0,0,1,7.43-3.69,6.91,6.91,0,0,1,5.85,1.6c1.49,1.57,1.86,4.11,1,6.89a14.67,14.67,0,0,1-4.62,7.63A14,14,0,0,1,627.92,1326.47Zm4.16,19.43L617.39,1404a19.57,19.57,0,0,1-5,9.46,13.34,13.34,0,0,1-7.69,4.06c-2.62.45-4.82-.38-6-2.25-1.25-2.3-1.37-5.39-.34-8.66l14.49-57.35a19.42,19.42,0,0,1,4.89-9.32,12.84,12.84,0,0,1,7.52-3.93c2.63-.44,4.86.31,6.14,2.06,1.27,2,1.45,4.9.49,8Z" transform="translate(0)"/><path class="light" d="M669.23,1340.76l-.62,2.43a67.62,67.62,0,0,1,13.73-11.78,35.76,35.76,0,0,1,13.82-5.2c5.73-.83,10.92.06,15,2.56a18.42,18.42,0,0,1,8.13,12.35,46.14,46.14,0,0,1-1.22,21.15,72.91,72.91,0,0,1-6.77,17.42,64.54,64.54,0,0,1-10.1,14,51.7,51.7,0,0,1-12.23,9.46,38.34,38.34,0,0,1-13.32,4.57,20.36,20.36,0,0,1-12.83-1.54,21.73,21.73,0,0,1-7.93-8.81l-7.61,30.11q-3.35,13.23-12.48,14.48c-2.89.79-5.31-.16-6.22-2.44a21,21,0,0,1,.79-9.71l21.86-86.5a18.93,18.93,0,0,1,4.53-8.87,12.1,12.1,0,0,1,7.19-3.73c2.47-.4,4.57.34,5.74,2C670,1334.76,670.2,1337.66,669.23,1340.76Zm29.83,24a33.52,33.52,0,0,0,1.16-13.36,11.64,11.64,0,0,0-4.26-7.86,10.84,10.84,0,0,0-8.24-1.8c-5.12.65-10.6,3.72-14.92,8.35a43.06,43.06,0,0,0-10.24,20c-2.08,6.73-1.86,13.08.63,17.89,2.15,3.82,6.45,5.59,11.64,4.8a21.22,21.22,0,0,0,9.47-4.07,34.68,34.68,0,0,0,8.67-9.6,49.14,49.14,0,0,0,6.09-14.33Z" transform="translate(0)"/><path class="light" d="M785.16,1358.07l-37.27,5.12a25.19,25.19,0,0,0-.42,11.7c1.31,6.09,6.53,9.33,13.37,8.29a25.66,25.66,0,0,0,6.44-1.71,30.41,30.41,0,0,0,6.13-3.38,70.88,70.88,0,0,0,5.84-4.53c1.83-1.57,4.29-3.89,7.2-6.36a8.48,8.48,0,0,1,4.51-1.91,4.93,4.93,0,0,1,4.31,1,4.71,4.71,0,0,1,.6,4.53,20.23,20.23,0,0,1-3.64,6.64,42.68,42.68,0,0,1-7.82,7.67,55.08,55.08,0,0,1-11.63,6.94,52.16,52.16,0,0,1-14.71,4.16q-18.27,2.52-25.64-7.13c-4.95-6.38-5.8-15.9-2.62-28.48a69.62,69.62,0,0,1,6.66-16.81,61.67,61.67,0,0,1,10.61-14.06,54,54,0,0,1,13.93-10,52.7,52.7,0,0,1,16.3-5c6.73-1.12,12.9-.32,17.85,2.33a17.76,17.76,0,0,1,8.71,11.18,30.18,30.18,0,0,1-.09,15.45c-1.27,5-3.46,8.49-6.59,10.37A32.34,32.34,0,0,1,785.16,1358.07Zm-34.29-6.28,34.45-4.73c1.37-5.6.89-10.77-1.36-14.66-2.27-3-6.17-4.25-10.73-3.44-4.37.46-9.1,2.93-13,6.76a40.88,40.88,0,0,0-9.5,16.09Z" transform="translate(0)"/><path class="light" d="M848.12,1342.07l8.56-31.42q2.52-9.18,3.87-13.2a19,19,0,0,1,5.67-8.69,14.1,14.1,0,0,1,8.4-3.5c3.68-.22,5.71.94,6.07,3.48s-.28,6.26-1.93,11.18q-1.47,4.35-3.43,8.85l-13.69,32.63a38.06,38.06,0,0,1-4.92,9,8.09,8.09,0,0,1-5.93,3.39q-3.46.2-3.81-2.71T848.12,1342.07Zm-7.45,42.9a6.79,6.79,0,0,1-6-2.19q-2.06-2.43-.48-7.1a15.38,15.38,0,0,1,5.14-7.12,13.66,13.66,0,0,1,7.81-3.27q4.05-.24,6,2.46c1.26,1.79,1.44,4,.52,6.77a14.88,14.88,0,0,1-5.33,7.42A14.19,14.19,0,0,1,840.67,1385Z" transform="translate(0)"/><path class="light" d="M884.05,1338.3,896,1308q3.53-8.85,5.32-12.69a18.92,18.92,0,0,1,6.59-8,14.07,14.07,0,0,1,8.73-2.55c3.69.19,5.57,1.57,5.66,4.13s-1,6.2-3.17,10.9q-1.93,4.15-4.37,8.42l-17.22,30.91a38.17,38.17,0,0,1-5.89,8.4,8.11,8.11,0,0,1-6.27,2.71c-2.31-.12-3.48-1.16-3.49-3.12S882.62,1342.22,884.05,1338.3Zm-12.15,41.81a6.78,6.78,0,0,1-5.69-2.84q-1.77-2.64.31-7.11a15.43,15.43,0,0,1,5.89-6.5,13.69,13.69,0,0,1,8.13-2.39c2.7.14,4.58,1.18,5.64,3.1s1,4.19-.23,6.79a15,15,0,0,1-6.12,6.78A14.16,14.16,0,0,1,871.9,1380.11Z" transform="translate(0)"/></svg>