<svg xmlns="http://www.w3.org/2000/svg" viewBox="0 0 972 1745.31"><defs><style>.cls-1{fill:#ff2b00;}.cls-2{fill:none;stroke:#f9b2a7;stroke-miterlimit:10;stroke-width:5px;}.cls-3{fill:#f9b2a7;}</style></defs><title>Asset 23</title><g id="Layer_2" data-name="Layer 2"><g id="Layer_4" data-name="Layer 4"><rect class="cls-1" width="972" height="1745.31" rx="84.69"/><rect class="cls-2" x="29.58" y="194.59" width="912" height="1451.5" rx="84.69"/><polygon class="cls-3" points="283.58 61.63 260.3 113.96 207.87 79.49 219.02 136.75 152.44 128.28 192.07 172.16 132.15 194.95 192.07 217.72 152.44 261.61 222.69 247.61 207.87 310.39 260.3 264.86 283.58 328.26 306.85 264.86 359.29 310.39 348.14 253.14 414.71 261.61 371.41 217.72 435 194.95 371.41 172.16 414.71 128.28 348.14 136.75 359.29 79.49 306.85 113.96 283.58 61.63"/><path class="cls-1" d="M230.92,162.68h16.82A45.36,45.36,0,0,1,259,163.89a20.59,20.59,0,0,1,8.52,4.57q10,8.5,9.95,25.9a50.58,50.58,0,0,1-1,10.47,30.77,30.77,0,0,1-3.08,8.54,26.48,26.48,0,0,1-5.35,6.8,21.91,21.91,0,0,1-5.6,3.69,25.46,25.46,0,0,1-6.54,2,49.5,49.5,0,0,1-7.89.56H231.18a10.52,10.52,0,0,1-5.3-1.06,5,5,0,0,1-2.33-3,19.16,19.16,0,0,1-.54-5V170.58q0-4.17,1.87-6T230.92,162.68Zm5,10.21v43.24h9.78q3.21,0,5-.18a15.31,15.31,0,0,0,3.78-.87,10.31,10.31,0,0,0,3.39-2q6.46-5.48,6.47-18.86,0-9.44-2.84-14.12t-7-6a34.77,34.77,0,0,0-10.08-1.28Z"/><path class="cls-1" d="M316.84,161.59a34,34,0,0,1,17,4A26,26,0,0,1,344.6,177a38.86,38.86,0,0,1,3.65,17.4,42.65,42.65,0,0,1-2,13.43,29.16,29.16,0,0,1-6,10.47,26.14,26.14,0,0,1-9.82,6.78,38.72,38.72,0,0,1-26.73-.06,26.57,26.57,0,0,1-9.86-6.8,29.11,29.11,0,0,1-6-10.56,42.57,42.57,0,0,1-2-13.34A41.11,41.11,0,0,1,288,180.88a29,29,0,0,1,6.1-10.43,26.5,26.5,0,0,1,9.74-6.58A35.06,35.06,0,0,1,316.84,161.59Zm18.33,32.77a29.84,29.84,0,0,0-2.26-12.13,16.84,16.84,0,0,0-6.45-7.76,17.73,17.73,0,0,0-9.62-2.62,17.41,17.41,0,0,0-7.15,1.45,15.63,15.63,0,0,0-5.65,4.24,20.15,20.15,0,0,0-3.74,7.1,32.24,32.24,0,0,0-1.37,9.72,33,33,0,0,0,1.37,9.82,20.12,20.12,0,0,0,3.87,7.28,16.36,16.36,0,0,0,5.73,4.32,18.17,18.17,0,0,0,16.21-1,17.12,17.12,0,0,0,6.61-7.65A29.52,29.52,0,0,0,335.17,194.36Z"/><polygon class="cls-3" points="363.24 1720.3 214.18 1646.45 363.24 1572.59 335.6 1611.45 749 1605.62 749 1687.27 335.6 1681.44 363.24 1720.3"/><path class="cls-1" d="M358.53,1649.49a6.8,6.8,0,0,1-4.67,6.78,15.74,15.74,0,0,1-5.62.89,13.59,13.59,0,0,1-5.41-1,7.82,7.82,0,0,1-3.33-2.41,4.87,4.87,0,0,1-1.08-2.91,2.26,2.26,0,0,1,.69-1.66,2.36,2.36,0,0,1,1.74-.69,2,2,0,0,1,1.42.46,4.91,4.91,0,0,1,.94,1.26,5.65,5.65,0,0,0,5.59,3.12,4.91,4.91,0,0,0,2.89-.79,2.21,2.21,0,0,0,1.13-1.79,2.46,2.46,0,0,0-1.17-2.26,14.64,14.64,0,0,0-3.86-1.35,32,32,0,0,1-4.93-1.58,8.12,8.12,0,0,1-3-2.18,5,5,0,0,1-1.14-3.33,5.9,5.9,0,0,1,1.05-3.33,7.29,7.29,0,0,1,3.11-2.5,11.79,11.79,0,0,1,5-.94,16,16,0,0,1,4.09.48,10.09,10.09,0,0,1,3,1.26,6.18,6.18,0,0,1,1.85,1.77,3.44,3.44,0,0,1,.63,1.89,2.18,2.18,0,0,1-.67,1.65,2.69,2.69,0,0,1-1.93.64,2.35,2.35,0,0,1-1.53-.51,9.36,9.36,0,0,1-1.45-1.55,5.37,5.37,0,0,0-1.57-1.37,4.87,4.87,0,0,0-2.45-.52,4.79,4.79,0,0,0-2.64.68,2,2,0,0,0-1.06,1.68,1.82,1.82,0,0,0,.78,1.52,6.5,6.5,0,0,0,2.08,1c.88.25,2.08.57,3.61.94a19.8,19.8,0,0,1,4.46,1.59,7.41,7.41,0,0,1,2.62,2.18A4.88,4.88,0,0,1,358.53,1649.49Z"/><path class="cls-1" d="M366.05,1637l3.83,13.1,3.48-12.18c.37-1.27.64-2.15.82-2.61a3.39,3.39,0,0,1,1-1.33,3,3,0,0,1,2-.64,3,3,0,0,1,2.06.64,3.65,3.65,0,0,1,1,1.37c.2.5.48,1.35.84,2.57l3.48,12.18,3.86-13.1c.26-1,.47-1.63.63-2.06a2.65,2.65,0,0,1,.79-1.11,2.35,2.35,0,0,1,1.61-.49,2.62,2.62,0,0,1,1.83.73,2.31,2.31,0,0,1,.77,1.72,9.05,9.05,0,0,1-.66,2.73l-4.8,14q-.62,1.79-1,2.58a3.85,3.85,0,0,1-1.09,1.42,3.08,3.08,0,0,1-2,.62,3,3,0,0,1-2.09-.67,3.9,3.9,0,0,1-1.13-1.63c-.24-.64-.51-1.48-.79-2.51l-3.36-11.43L374,1652.35a14.1,14.1,0,0,1-1.4,3.6,2.85,2.85,0,0,1-2.64,1.21,3.24,3.24,0,0,1-1.64-.38,3.12,3.12,0,0,1-1.13-1.07,8.18,8.18,0,0,1-.8-1.65c-.23-.64-.4-1.15-.53-1.52l-4.75-14a10.1,10.1,0,0,1-.71-2.73,2.33,2.33,0,0,1,.75-1.69,2.49,2.49,0,0,1,1.85-.76,2.17,2.17,0,0,1,2,.83A12.05,12.05,0,0,1,366.05,1637Z"/><path class="cls-1" d="M401.14,1630.58a3.11,3.11,0,0,1-2.1-.75,2.65,2.65,0,0,1-.87-2.12,2.68,2.68,0,0,1,.89-2.06,3,3,0,0,1,2.08-.8,3.08,3.08,0,0,1,2,.73,2.64,2.64,0,0,1,.88,2.13,2.68,2.68,0,0,1-.86,2.11A3,3,0,0,1,401.14,1630.58Zm2.9,6.06v16.95a3.78,3.78,0,0,1-.84,2.67,2.79,2.79,0,0,1-2.13.9,2.64,2.64,0,0,1-2.09-.92,3.91,3.91,0,0,1-.81-2.65v-16.77a3.78,3.78,0,0,1,.81-2.63,2.71,2.71,0,0,1,2.09-.88,2.84,2.84,0,0,1,2.13.88A3.42,3.42,0,0,1,404,1636.64Z"/><path class="cls-1" d="M415.51,1636.6v.71a11.6,11.6,0,0,1,3.44-3,8.46,8.46,0,0,1,4-1,9.36,9.36,0,0,1,5,1.39,9.6,9.6,0,0,1,3.6,4.08,14.3,14.3,0,0,1,1.32,6.36,15.48,15.48,0,0,1-.76,5,11.12,11.12,0,0,1-2.1,3.8,9.21,9.21,0,0,1-7,3.19,8.23,8.23,0,0,1-4.23-1,12,12,0,0,1-3.25-3v8.8q0,3.87-2.82,3.87a2.25,2.25,0,0,1-2.19-1A6.24,6.24,0,0,1,410,1662v-25.31a3.68,3.68,0,0,1,.73-2.5,2.52,2.52,0,0,1,2-.83,2.66,2.66,0,0,1,2,.85A3.45,3.45,0,0,1,415.51,1636.6Zm11.49,8.53a10,10,0,0,0-.71-4,5.75,5.75,0,0,0-2-2.55,4.67,4.67,0,0,0-2.78-.89,5.21,5.21,0,0,0-4.1,1.91,8.34,8.34,0,0,0-1.66,5.63,8.15,8.15,0,0,0,1.65,5.44,5.17,5.17,0,0,0,4.11,2,4.67,4.67,0,0,0,2.7-.85,5.82,5.82,0,0,0,2-2.55A10.11,10.11,0,0,0,427,1645.13Z"/><path class="cls-1" d="M454,1646.68H442.49a7.9,7.9,0,0,0,.81,3.52,5.37,5.37,0,0,0,4.95,3.07,7.21,7.21,0,0,0,1.92-.24,6.44,6.44,0,0,0,1.69-.78,11.53,11.53,0,0,0,1.5-1.13c.46-.4,1.06-.94,1.79-1.63a1.91,1.91,0,0,1,1.29-.39,2.14,2.14,0,0,1,1.46.5,1.76,1.76,0,0,1,.56,1.39,3.76,3.76,0,0,1-.63,1.86,7.22,7.22,0,0,1-1.88,2,10.42,10.42,0,0,1-3.16,1.63,13.54,13.54,0,0,1-4.37.64q-5.64,0-8.78-3.22c-2.1-2.15-3.14-5.06-3.14-8.75a14.72,14.72,0,0,1,.77-4.82,10.69,10.69,0,0,1,2.26-3.81,9.69,9.69,0,0,1,3.65-2.44,13,13,0,0,1,4.81-.85,11.39,11.39,0,0,1,5.9,1.45,9.62,9.62,0,0,1,3.69,3.75,9.9,9.9,0,0,1,1.22,4.68c0,1.48-.42,2.43-1.27,2.87A7.81,7.81,0,0,1,454,1646.68Zm-11.48-3.33h10.64a7.19,7.19,0,0,0-1.62-4.5,4.86,4.86,0,0,0-3.71-1.5,4.7,4.7,0,0,0-3.6,1.52A7.51,7.51,0,0,0,442.49,1643.35Z"/><path class="cls-1" d="M475.06,1633.83h.65v-3.52c0-1,0-1.69.07-2.23a3.2,3.2,0,0,1,.42-1.38,2.66,2.66,0,0,1,1-1,2.82,2.82,0,0,1,1.44-.38,2.9,2.9,0,0,1,2,.84,2.5,2.5,0,0,1,.76,1.36,12.22,12.22,0,0,1,.16,2.29v4h2.15a2.75,2.75,0,0,1,1.9.59,1.93,1.93,0,0,1,.66,1.51,1.7,1.7,0,0,1-.94,1.66,6.11,6.11,0,0,1-2.67.47h-1.1v10.79a18.24,18.24,0,0,0,.1,2.11,2.13,2.13,0,0,0,.52,1.21,1.77,1.77,0,0,0,1.36.46,7.49,7.49,0,0,0,1.4-.18,6.63,6.63,0,0,1,1.37-.19,1.77,1.77,0,0,1,1.28.57,1.92,1.92,0,0,1,.57,1.41,2.36,2.36,0,0,1-1.55,2.17,10.47,10.47,0,0,1-4.45.75,7.7,7.7,0,0,1-4.16-.92,4.27,4.27,0,0,1-1.86-2.56,17,17,0,0,1-.44-4.36v-11.26h-.78a2.79,2.79,0,0,1-1.93-.6,2,2,0,0,1-.67-1.53,1.91,1.91,0,0,1,.7-1.51A3.11,3.11,0,0,1,475.06,1633.83Z"/><path class="cls-1" d="M512.27,1645.24a14,14,0,0,1-.81,4.83,10.6,10.6,0,0,1-2.37,3.8,10.35,10.35,0,0,1-3.69,2.44,13,13,0,0,1-4.83.85,12.79,12.79,0,0,1-4.8-.86,10.57,10.57,0,0,1-6-6.24,13.73,13.73,0,0,1-.81-4.82,13.88,13.88,0,0,1,.82-4.88,10.5,10.5,0,0,1,2.34-3.78,10.39,10.39,0,0,1,3.69-2.42,14,14,0,0,1,9.63,0,10.38,10.38,0,0,1,6.07,6.23A13.89,13.89,0,0,1,512.27,1645.24Zm-5.88,0a8.83,8.83,0,0,0-1.58-5.59,5.13,5.13,0,0,0-4.24-2,5.27,5.27,0,0,0-3,.89,5.65,5.65,0,0,0-2,2.64,11.9,11.9,0,0,0,0,8.07,5.76,5.76,0,0,0,2,2.64,5.2,5.2,0,0,0,3.07.91,5.12,5.12,0,0,0,4.24-2A8.79,8.79,0,0,0,506.39,1645.24Z"/><path class="cls-1" d="M548.93,1649.9a5,5,0,0,1-.66,2.34,8.16,8.16,0,0,1-2,2.38,10.32,10.32,0,0,1-3.38,1.81,14.3,14.3,0,0,1-4.6.69q-5.43,0-8.48-3.17a11.72,11.72,0,0,1-3.06-8.5,14,14,0,0,1,1.4-6.38,10,10,0,0,1,4-4.29,12.6,12.6,0,0,1,6.32-1.51,12.47,12.47,0,0,1,4.18.67,10.71,10.71,0,0,1,3.22,1.72,8.36,8.36,0,0,1,2,2.24,4.53,4.53,0,0,1,.7,2.22,2.37,2.37,0,0,1-.79,1.79,2.7,2.7,0,0,1-1.9.73,1.9,1.9,0,0,1-1.21-.38,5.62,5.62,0,0,1-1.09-1.21,8.71,8.71,0,0,0-2.24-2.45,5.52,5.52,0,0,0-7.17,1.21,8.81,8.81,0,0,0-1.59,5.56,10.85,10.85,0,0,0,.41,3,7,7,0,0,0,1.18,2.36,5,5,0,0,0,1.87,1.48,5.63,5.63,0,0,0,2.41.51,5.48,5.48,0,0,0,3-.82,7.19,7.19,0,0,0,2.22-2.49,5.64,5.64,0,0,1,1.16-1.55,2.19,2.19,0,0,1,1.52-.56,2.28,2.28,0,0,1,1.79.82A2.61,2.61,0,0,1,548.93,1649.9Z"/><path class="cls-1" d="M576,1645.24a14,14,0,0,1-.82,4.83,10.57,10.57,0,0,1-2.36,3.8,10.39,10.39,0,0,1-3.7,2.44,13,13,0,0,1-4.83.85,12.74,12.74,0,0,1-4.79-.86,10.58,10.58,0,0,1-3.69-2.46,10.7,10.7,0,0,1-2.36-3.78,13.73,13.73,0,0,1-.81-4.82,14.11,14.11,0,0,1,.82-4.88,10.5,10.5,0,0,1,2.34-3.78,10.34,10.34,0,0,1,3.7-2.42,14,14,0,0,1,9.62,0,10.38,10.38,0,0,1,6.07,6.23A13.89,13.89,0,0,1,576,1645.24Zm-5.89,0a8.83,8.83,0,0,0-1.58-5.59,5.13,5.13,0,0,0-4.24-2,5.27,5.27,0,0,0-3,.89,5.65,5.65,0,0,0-2,2.64,10.75,10.75,0,0,0-.71,4.06,10.49,10.49,0,0,0,.7,4,5.71,5.71,0,0,0,2,2.64,5.52,5.52,0,0,0,7.3-1.1A8.79,8.79,0,0,0,570.11,1645.24Z"/><path class="cls-1" d="M585.94,1636.56v.71a10.36,10.36,0,0,1,3.39-3,9,9,0,0,1,4.22-1,8.47,8.47,0,0,1,4.15,1,6.48,6.48,0,0,1,2.72,2.86,6.89,6.89,0,0,1,.76,2.32,24.89,24.89,0,0,1,.17,3.18v10.91a3.88,3.88,0,0,1-.81,2.67,2.66,2.66,0,0,1-2.09.9,2.73,2.73,0,0,1-2.13-.92,3.91,3.91,0,0,1-.82-2.65v-9.77a9.78,9.78,0,0,0-.8-4.44q-.81-1.53-3.21-1.53a4.77,4.77,0,0,0-2.86.93,5.35,5.35,0,0,0-1.89,2.57,18.22,18.22,0,0,0-.43,4.9v7.34a3.82,3.82,0,0,1-.83,2.68,2.79,2.79,0,0,1-2.14.89,2.67,2.67,0,0,1-2.08-.92,3.91,3.91,0,0,1-.82-2.65v-16.95a3.73,3.73,0,0,1,.73-2.5,2.55,2.55,0,0,1,2-.83,2.76,2.76,0,0,1,1.4.37,2.65,2.65,0,0,1,1,1.09A3.91,3.91,0,0,1,585.94,1636.56Z"/><path class="cls-1" d="M607.51,1633.83h.65v-3.52c0-1,0-1.69.07-2.23a3.2,3.2,0,0,1,.42-1.38,2.66,2.66,0,0,1,1-1,2.82,2.82,0,0,1,1.44-.38,2.88,2.88,0,0,1,2,.84,2.44,2.44,0,0,1,.76,1.36,12.22,12.22,0,0,1,.16,2.29v4h2.15a2.75,2.75,0,0,1,1.9.59,1.93,1.93,0,0,1,.66,1.51,1.7,1.7,0,0,1-.94,1.66,6.11,6.11,0,0,1-2.67.47H614v10.79a18.24,18.24,0,0,0,.1,2.11,2.2,2.2,0,0,0,.52,1.21,1.78,1.78,0,0,0,1.36.46,7.49,7.49,0,0,0,1.4-.18,6.63,6.63,0,0,1,1.37-.19,1.76,1.76,0,0,1,1.28.57,1.92,1.92,0,0,1,.57,1.41,2.36,2.36,0,0,1-1.55,2.17,10.45,10.45,0,0,1-4.44.75,7.72,7.72,0,0,1-4.17-.92,4.27,4.27,0,0,1-1.86-2.56,17.51,17.51,0,0,1-.44-4.36v-11.26h-.77a2.82,2.82,0,0,1-1.94-.6,2,2,0,0,1-.66-1.53,1.9,1.9,0,0,1,.69-1.51A3.11,3.11,0,0,1,607.51,1633.83Z"/><path class="cls-1" d="M625.73,1630.58a3.1,3.1,0,0,1-2.09-.75,2.65,2.65,0,0,1-.87-2.12,2.68,2.68,0,0,1,.89-2.06,3.12,3.12,0,0,1,4.09-.07,2.61,2.61,0,0,1,.88,2.13,2.65,2.65,0,0,1-.86,2.11A3,3,0,0,1,625.73,1630.58Zm2.9,6.06v16.95a3.83,3.83,0,0,1-.83,2.67,2.79,2.79,0,0,1-2.13.9,2.68,2.68,0,0,1-2.1-.92,4,4,0,0,1-.8-2.65v-16.77a3.83,3.83,0,0,1,.8-2.63,2.75,2.75,0,0,1,2.1-.88,2.84,2.84,0,0,1,2.13.88A3.46,3.46,0,0,1,628.63,1636.64Z"/><path class="cls-1" d="M640,1636.56v.71a10.34,10.34,0,0,1,3.38-3,9,9,0,0,1,4.23-1,8.46,8.46,0,0,1,4.14,1,6.45,6.45,0,0,1,2.73,2.86,6.66,6.66,0,0,1,.75,2.32,23.17,23.17,0,0,1,.17,3.18v10.91a3.87,3.87,0,0,1-.8,2.67,2.9,2.9,0,0,1-4.22,0,3.86,3.86,0,0,1-.82-2.65v-9.77a9.92,9.92,0,0,0-.8-4.44c-.54-1-1.61-1.53-3.22-1.53a4.76,4.76,0,0,0-2.85.93,5.35,5.35,0,0,0-1.89,2.57,18.22,18.22,0,0,0-.43,4.9v7.34a3.82,3.82,0,0,1-.83,2.68,2.81,2.81,0,0,1-2.14.89,2.67,2.67,0,0,1-2.08-.92,3.86,3.86,0,0,1-.82-2.65v-16.95a3.68,3.68,0,0,1,.73-2.5,2.54,2.54,0,0,1,2-.83,2.79,2.79,0,0,1,1.4.37,2.63,2.63,0,0,1,1,1.09A3.79,3.79,0,0,1,640,1636.56Z"/><path class="cls-1" d="M675.92,1653.85v-.75a13,13,0,0,1-2.21,2.23,8.19,8.19,0,0,1-2.54,1.35,10.33,10.33,0,0,1-3.13.44,8.24,8.24,0,0,1-3.82-.88,6.52,6.52,0,0,1-2.61-2.43,10.77,10.77,0,0,1-1.09-5.37v-11.62a3.81,3.81,0,0,1,.79-2.64,2.72,2.72,0,0,1,2.11-.87,2.84,2.84,0,0,1,2.15.88,3.78,3.78,0,0,1,.81,2.63v9.38a14.42,14.42,0,0,0,.35,3.43,4.08,4.08,0,0,0,1.23,2.17,3.56,3.56,0,0,0,2.42.78,4.88,4.88,0,0,0,2.79-.88,5.12,5.12,0,0,0,1.91-2.29,18.45,18.45,0,0,0,.5-5.46v-7.13a3.78,3.78,0,0,1,.81-2.63,2.81,2.81,0,0,1,2.13-.88,2.73,2.73,0,0,1,2.11.87,3.81,3.81,0,0,1,.79,2.64v17a3.61,3.61,0,0,1-.76,2.51,2.71,2.71,0,0,1-3.95,0A3.48,3.48,0,0,1,675.92,1653.85Z"/><path class="cls-1" d="M703.64,1646.68H692.16a7.9,7.9,0,0,0,.81,3.52,5.37,5.37,0,0,0,4.95,3.07,7.21,7.21,0,0,0,1.92-.24,6.44,6.44,0,0,0,1.69-.78,11.53,11.53,0,0,0,1.5-1.13c.46-.4,1.06-.94,1.79-1.63a1.91,1.91,0,0,1,1.29-.39,2.14,2.14,0,0,1,1.46.5,1.76,1.76,0,0,1,.56,1.39,3.76,3.76,0,0,1-.63,1.86,7.22,7.22,0,0,1-1.88,2,10.42,10.42,0,0,1-3.16,1.63,13.54,13.54,0,0,1-4.37.64q-5.64,0-8.78-3.22c-2.1-2.15-3.14-5.06-3.14-8.75a14.72,14.72,0,0,1,.77-4.82,10.69,10.69,0,0,1,2.26-3.81,9.69,9.69,0,0,1,3.65-2.44,13,13,0,0,1,4.81-.85,11.39,11.39,0,0,1,5.9,1.45,9.62,9.62,0,0,1,3.69,3.75,9.9,9.9,0,0,1,1.22,4.68c0,1.48-.42,2.43-1.27,2.87A7.81,7.81,0,0,1,703.64,1646.68Zm-11.48-3.33H702.8a7.19,7.19,0,0,0-1.62-4.5,4.86,4.86,0,0,0-3.71-1.5,4.7,4.7,0,0,0-3.6,1.52A7.51,7.51,0,0,0,692.16,1643.35Z"/></g></g></svg>