<svg xmlns="http://www.w3.org/2000/svg" viewBox="0 0 972 1745.31"><defs><style>.cls-1{fill:#002f24;}.cls-2{fill:none;stroke:#33b44a;stroke-miterlimit:10;stroke-width:5px;}.cls-3{fill:#33b44a;}</style></defs><title>Asset 28</title><g id="Layer_2" data-name="Layer 2"><g id="Layer_4" data-name="Layer 4"><rect class="cls-1" width="972" height="1745.31" rx="84.69"/><rect class="cls-2" x="32.58" y="194.04" width="912" height="1446.5" rx="84.69"/><path class="cls-3" d="M557,1636.69c.13,27.58-21.5,56.24-71.56,55a214.2,214.2,0,0,1-27.43-2.2c-9.8.11-17.39,2.45-17.06,7,.5,7,16.32,9.81,16.32,9.81s-40.34,1.88-23-26.4c-12.42-12.58-14.67-29.48-14.76-43.17-.18-28.25,16.57-60.71,71.33-60.57,49.2.13,66.3,33.32,66.17,60.57"/><path class="cls-3" d="M363.5,192.42c0,53.77-44.86,88.37-113.74,88.37-26.39,0-38.62-6.08-38.84-6.19C206.44,288.35,186,292,173.23,294.34a.58.58,0,0,1-.29-1.1c13-5.63,30.7-18.28-1.39-39-20.36-13.14-33.1-39.84-33.1-61.84,0-53.78,42.1-97.19,117.36-97.38,70.3.19,107.69,43.6,107.69,97.38"/><path class="cls-1" d="M218.25,206.71a18.74,18.74,0,0,1-3,10.38,19.76,19.76,0,0,1-8.72,7.22,32.58,32.58,0,0,1-13.6,2.61q-9.42,0-15.56-3.57a20.81,20.81,0,0,1-7.06-6.84,15.55,15.55,0,0,1-2.71-8.32,5.65,5.65,0,0,1,5.78-5.7,4.9,4.9,0,0,1,3.45,1.31,10.24,10.24,0,0,1,2.41,3.86,25.82,25.82,0,0,0,2.63,5.09,10.73,10.73,0,0,0,4,3.37,14.73,14.73,0,0,0,6.73,1.32,15.22,15.22,0,0,0,9.33-2.67,8,8,0,0,0,3.58-6.67,7,7,0,0,0-1.93-5.15,12.42,12.42,0,0,0-5-3c-2-.7-4.77-1.43-8.19-2.22A59.66,59.66,0,0,1,178.9,194a18.61,18.61,0,0,1-7.34-5.86,15.26,15.26,0,0,1-2.72-9.24,15.87,15.87,0,0,1,2.87-9.34,18.08,18.08,0,0,1,8.3-6.28A34.05,34.05,0,0,1,192.79,161a31.68,31.68,0,0,1,10.15,1.45,21.38,21.38,0,0,1,7.1,3.87,16.2,16.2,0,0,1,4.13,5.06,11.66,11.66,0,0,1,1.3,5.17,6.08,6.08,0,0,1-1.63,4.15,5.19,5.19,0,0,1-4.06,1.85,4.67,4.67,0,0,1-3.37-1.11,15,15,0,0,1-2.5-3.63,16.43,16.43,0,0,0-4.17-5.62q-2.43-2-7.82-2a13.56,13.56,0,0,0-8.06,2.2,6.39,6.39,0,0,0-3.07,5.28,5.31,5.31,0,0,0,1.05,3.3,8.59,8.59,0,0,0,2.87,2.39,19,19,0,0,0,3.69,1.57q1.86.56,6.17,1.65a98.79,98.79,0,0,1,9.76,2.78,29.44,29.44,0,0,1,7.43,3.69,15.26,15.26,0,0,1,4.78,5.5A17.67,17.67,0,0,1,218.25,206.71Z"/><path class="cls-1" d="M270,218.62l-3-8H241L238,218.79a28,28,0,0,1-3,6.45,4.82,4.82,0,0,1-4.13,1.68,6.06,6.06,0,0,1-4.3-1.79,5.42,5.42,0,0,1-1.87-4,9,9,0,0,1,.44-2.69c.29-.93.76-2.22,1.43-3.87l16.3-41.37c.46-1.19,1-2.61,1.67-4.28a21.31,21.31,0,0,1,2.09-4.15,8.41,8.41,0,0,1,2.91-2.67,8.9,8.9,0,0,1,4.45-1,9,9,0,0,1,4.5,1,8.59,8.59,0,0,1,2.91,2.63,18.49,18.49,0,0,1,1.87,3.45c.51,1.23,1.15,2.88,1.93,4.93l16.65,41.11q1.95,4.69,1.95,6.83a5.65,5.65,0,0,1-1.84,4.06,6.09,6.09,0,0,1-4.46,1.85,5.77,5.77,0,0,1-2.6-.55A5.27,5.27,0,0,1,273,224.9a14.13,14.13,0,0,1-1.59-2.87C270.86,220.74,270.37,219.6,270,218.62Zm-25.55-17.69h19l-9.6-26.29Z"/><path class="cls-1" d="M301.82,219.05V198.84l-15.56-24.12a51.26,51.26,0,0,1-2.89-5.08,7.81,7.81,0,0,1-.84-3.17,5.09,5.09,0,0,1,1.71-3.83,6,6,0,0,1,4.24-1.6,5.16,5.16,0,0,1,4,1.49,46,46,0,0,1,4.11,6l11.9,19.34,12-19.34,1.83-3a17.76,17.76,0,0,1,1.63-2.28,6.52,6.52,0,0,1,2-1.63,5.67,5.67,0,0,1,2.65-.56,5.59,5.59,0,0,1,4.07,1.58,5,5,0,0,1,1.63,3.67,7.69,7.69,0,0,1-.83,3.39,44.19,44.19,0,0,1-2.82,4.7l-15.95,24.46v20.21q0,4-1.83,5.91a6.52,6.52,0,0,1-9.3,0C302.42,223.69,301.82,221.72,301.82,219.05Z"/></g></g></svg>