<?xml version="1.0" encoding="utf-8"?>
<!-- Generator: Adobe Illustrator 24.1.2, SVG Export Plug-In . SVG Version: 6.00 Build 0)  -->
<svg version="1.1" id="Layer_2_1_" xmlns="http://www.w3.org/2000/svg" xmlns:xlink="http://www.w3.org/1999/xlink" x="0px" y="0px"
	 viewBox="0 0 972 1745.3" style="enable-background:new 0 0 972 1745.3;" xml:space="preserve">
<style type="text/css">
	.light{fill:#F9B2A7;}
	.dark{fill:#FF2B00;}
</style>
<polygon class="light" points="276.2,61.6 251.7,114 196.3,79.5 208.1,136.7 137.8,128.3 179.6,172.2 116.3,194.9 179.6,217.7 
	137.8,261.6 211.9,247.6 196.3,310.4 251.7,264.9 276.2,328.3 300.8,264.9 356.2,310.4 344.4,253.1 414.7,261.6 369,217.7 
	436.1,194.9 369,172.2 414.7,128.3 344.4,136.7 356.2,79.5 300.8,114 "/>
<path class="dark" d="M195.4,161.6h16.9c4.4,0,8.2,0.4,11.3,1.2c3.1,0.8,6,2.3,8.6,4.6c6.7,5.7,10,14.4,10,26c0,3.8-0.3,7.4-1,10.5
	c-0.7,3.2-1.7,6-3.1,8.6c-1.4,2.5-3.2,4.8-5.4,6.8c-1.7,1.5-3.6,2.8-5.6,3.7c-2,0.9-4.2,1.6-6.6,2c-2.3,0.4-5,0.6-7.9,0.6h-16.9
	c-2.4,0-4.1-0.4-5.3-1.1c-1.2-0.7-2-1.7-2.3-3c-0.4-1.3-0.5-3-0.5-5v-47c0-2.8,0.6-4.8,1.9-6.1C190.6,162.2,192.6,161.6,195.4,161.6
	z M200.4,171.8v43.5h9.8c2.2,0,3.8-0.1,5.1-0.2c1.2-0.1,2.5-0.4,3.8-0.9c1.3-0.5,2.4-1.1,3.4-2c4.3-3.7,6.5-10,6.5-19
	c0-6.3-1-11.1-2.9-14.2c-1.9-3.1-4.3-5.1-7.1-6c-2.8-0.9-6.2-1.3-10.1-1.3H200.4z"/>
<path class="dark" d="M276.8,160.5c6.6,0,12.3,1.3,17.1,4c4.8,2.7,8.4,6.5,10.8,11.5c2.4,5,3.7,10.8,3.7,17.5c0,5-0.7,9.4-2,13.5
	c-1.3,4-3.3,7.6-6,10.5c-2.7,3-6,5.2-9.9,6.8c-3.9,1.6-8.4,2.4-13.4,2.4c-5,0-9.5-0.8-13.5-2.4c-4-1.6-7.3-3.9-9.9-6.8
	c-2.6-2.9-4.7-6.5-6-10.6c-1.4-4.1-2-8.6-2-13.4c0-4.9,0.7-9.4,2.1-13.5c1.4-4.1,3.5-7.6,6.1-10.5c2.7-2.9,5.9-5.1,9.8-6.6
	S271.9,160.5,276.8,160.5z M295.2,193.4c0-4.7-0.8-8.8-2.3-12.2c-1.5-3.4-3.7-6-6.5-7.8c-2.8-1.8-6-2.6-9.7-2.6
	c-2.6,0-5,0.5-7.2,1.5c-2.2,1-4.1,2.4-5.7,4.3c-1.6,1.9-2.8,4.2-3.8,7.1c-0.9,2.9-1.4,6.2-1.4,9.8c0,3.6,0.5,6.9,1.4,9.9
	c0.9,2.9,2.2,5.4,3.9,7.3c1.7,1.9,3.6,3.4,5.8,4.3c2.2,1,4.5,1.4,7.1,1.4c3.3,0,6.4-0.8,9.2-2.5c2.8-1.7,5-4.2,6.6-7.7
	C294.4,202.7,295.2,198.5,295.2,193.4z"/>
<path class="dark" d="M355.6,171.6h-29.2v15.7h26.9c2,0,3.5,0.4,4.4,1.3c1,0.9,1.5,2.1,1.5,3.5c0,1.5-0.5,2.6-1.4,3.6
	c-1,0.9-2.4,1.4-4.5,1.4h-26.9v18.2h30.2c2,0,3.6,0.5,4.6,1.4c1,0.9,1.6,2.2,1.6,3.8c0,1.5-0.5,2.7-1.6,3.7c-1,0.9-2.6,1.4-4.6,1.4
	h-35.2c-2.8,0-4.9-0.6-6.1-1.9c-1.2-1.3-1.9-3.3-1.9-6.1v-48.1c0-1.9,0.3-3.4,0.8-4.6c0.6-1.2,1.4-2,2.6-2.6
	c1.2-0.5,2.7-0.8,4.5-0.8h34.2c2.1,0,3.6,0.5,4.6,1.4c1,0.9,1.5,2.1,1.5,3.6c0,1.5-0.5,2.7-1.5,3.6
	C359.2,171.1,357.7,171.6,355.6,171.6z"/>
</svg>
