<svg xmlns="http://www.w3.org/2000/svg" viewBox="0 0 972 1745.31"><defs><style>.cls-1{fill:#002f24;}.cls-2{fill:none;stroke:#33b44a;stroke-miterlimit:10;stroke-width:5px;}.cls-3{fill:#33b44a;}</style></defs><title>Asset 17</title><g id="Layer_2" data-name="Layer 2"><g id="Layer_4" data-name="Layer 4"><rect class="cls-1" width="972" height="1745.31" rx="84.69"/><rect class="cls-2" x="32.58" y="194.04" width="912" height="1451.5" rx="84.69"/><path class="cls-3" d="M699,1706.23c5.53-17.44,7.55-26.09,7.55-26.09-42.13,4.67-137.18,13.2-218.09,13-70.46-.21-183.76-9.47-215.07-11.68,0,0,2.94,13.7,4.75,24.79-9.61-46.77-99.84-61.12-99.84-61.12s90.23-17.44,99.84-61.12c-4.72,20.86-5,23.38-5,23.38,42.31-5.65,135.92-14.83,215.33-14.83,66.76,0,174.63,8.54,212.68,13.18,0,0-1.16-8.36-2.14-21.73,4.71,46.94,99.84,61.12,99.84,61.12s-84.53,7-99.84,61.12"/><path class="cls-3" d="M814,189c0,55.65-71.18,92.65-341.62,91.45-132.86-.59-228.19-14.68-228.19-14.68-14.18,38.86-62.82,34.09-62.82,34.09s56.64-33.58,11-56.41c-23.54-11.77-34.72-31.68-34.72-54.45,0-55.66,79.08-100.78,340.53-100.78C742.78,88.23,814,133.35,814,189"/><path class="cls-1" d="M457.82,206.71a18.74,18.74,0,0,1-3,10.38,19.76,19.76,0,0,1-8.72,7.22,32.61,32.61,0,0,1-13.6,2.61q-9.43,0-15.56-3.57a20.81,20.81,0,0,1-7.06-6.84,15.55,15.55,0,0,1-2.71-8.32,5.65,5.65,0,0,1,5.78-5.7,4.9,4.9,0,0,1,3.45,1.31,10.24,10.24,0,0,1,2.41,3.86,25.82,25.82,0,0,0,2.63,5.09,10.73,10.73,0,0,0,4,3.37,14.73,14.73,0,0,0,6.73,1.32,15.17,15.17,0,0,0,9.32-2.67,8,8,0,0,0,3.59-6.67,7,7,0,0,0-1.93-5.15,12.42,12.42,0,0,0-5-3c-2-.7-4.77-1.43-8.19-2.22a59.66,59.66,0,0,1-11.5-3.76,18.61,18.61,0,0,1-7.34-5.86,15.26,15.26,0,0,1-2.72-9.24,15.87,15.87,0,0,1,2.87-9.34,18.08,18.08,0,0,1,8.3-6.28A34.05,34.05,0,0,1,432.36,161a31.57,31.57,0,0,1,10.14,1.45,21.33,21.33,0,0,1,7.11,3.87,16.2,16.2,0,0,1,4.13,5.06,11.66,11.66,0,0,1,1.3,5.17,6.08,6.08,0,0,1-1.63,4.15,5.19,5.19,0,0,1-4.06,1.85,4.67,4.67,0,0,1-3.37-1.11,15,15,0,0,1-2.5-3.63,16.43,16.43,0,0,0-4.17-5.62q-2.43-2-7.82-2a13.56,13.56,0,0,0-8.06,2.2,6.36,6.36,0,0,0-3.07,5.28,5.31,5.31,0,0,0,1.05,3.3,8.65,8.65,0,0,0,2.86,2.39,19.37,19.37,0,0,0,3.7,1.57q1.86.56,6.17,1.65a98.79,98.79,0,0,1,9.76,2.78,29.61,29.61,0,0,1,7.43,3.69,15.26,15.26,0,0,1,4.78,5.5A17.67,17.67,0,0,1,457.82,206.71Z"/><path class="cls-1" d="M509.54,218.62l-3-8H480.59l-3,8.17a28.48,28.48,0,0,1-3,6.45,4.83,4.83,0,0,1-4.13,1.68,6.06,6.06,0,0,1-4.3-1.79,5.42,5.42,0,0,1-1.87-4,9,9,0,0,1,.44-2.69c.29-.93.76-2.22,1.43-3.87l16.3-41.37c.46-1.19,1-2.61,1.67-4.28a21.31,21.31,0,0,1,2.09-4.15,8.32,8.32,0,0,1,2.91-2.67,8.9,8.9,0,0,1,4.45-1,9,9,0,0,1,4.5,1,8.59,8.59,0,0,1,2.91,2.63,18.49,18.49,0,0,1,1.87,3.45c.51,1.23,1.15,2.88,1.93,4.93l16.65,41.11q1.95,4.69,1.95,6.83a5.65,5.65,0,0,1-1.84,4.06,6.1,6.1,0,0,1-4.46,1.85,5.84,5.84,0,0,1-2.61-.55,5.33,5.33,0,0,1-1.82-1.47A14.13,14.13,0,0,1,511,222C510.43,220.74,509.94,219.6,509.54,218.62ZM484,200.93h19l-9.61-26.29Z"/><path class="cls-1" d="M541.39,219.05V198.84l-15.56-24.12a51.26,51.26,0,0,1-2.89-5.08,7.81,7.81,0,0,1-.84-3.17,5.09,5.09,0,0,1,1.71-3.83,6,6,0,0,1,4.24-1.6,5.16,5.16,0,0,1,4,1.49,46,46,0,0,1,4.11,6l11.9,19.34,12-19.34,1.83-3a17.76,17.76,0,0,1,1.63-2.28,6.52,6.52,0,0,1,2-1.63,5.67,5.67,0,0,1,2.65-.56,5.59,5.59,0,0,1,4.07,1.58,5,5,0,0,1,1.63,3.67,7.69,7.69,0,0,1-.83,3.39,44.19,44.19,0,0,1-2.82,4.7l-16,24.46v20.21q0,4-1.83,5.91a6.52,6.52,0,0,1-9.3,0C542,223.69,541.39,221.72,541.39,219.05Z"/><path class="cls-1" d="M320.53,1642.94a7.14,7.14,0,0,1-1.18,4.15,7.24,7.24,0,0,1-3.49,2.63,15.74,15.74,0,0,1-5.62.89,13.77,13.77,0,0,1-5.41-1,7.75,7.75,0,0,1-3.33-2.42,4.82,4.82,0,0,1-1.08-2.91,2.25,2.25,0,0,1,.69-1.65,2.36,2.36,0,0,1,1.74-.69,2,2,0,0,1,1.42.45,5,5,0,0,1,.94,1.27,6.56,6.56,0,0,0,2.16,2.34,6.48,6.48,0,0,0,3.43.77,5,5,0,0,0,2.89-.78,2.21,2.21,0,0,0,1.13-1.79,2.44,2.44,0,0,0-1.17-2.26,14.64,14.64,0,0,0-3.86-1.35,32,32,0,0,1-4.93-1.58,8.12,8.12,0,0,1-3-2.18,5,5,0,0,1-1.14-3.33,5.86,5.86,0,0,1,1.05-3.33,7.31,7.31,0,0,1,3.11-2.51,12,12,0,0,1,5-.93,16.48,16.48,0,0,1,4.09.47,10.35,10.35,0,0,1,3,1.27,6.28,6.28,0,0,1,1.85,1.76,3.49,3.49,0,0,1,.63,1.89,2.19,2.19,0,0,1-.67,1.66,2.69,2.69,0,0,1-1.93.64,2.35,2.35,0,0,1-1.53-.51,9.78,9.78,0,0,1-1.45-1.55,5.56,5.56,0,0,0-1.57-1.38,5,5,0,0,0-2.45-.51,4.79,4.79,0,0,0-2.64.67,2,2,0,0,0-1.06,1.69,1.83,1.83,0,0,0,.78,1.52,6.3,6.3,0,0,0,2.08,1c.88.26,2.08.58,3.61,1a18.86,18.86,0,0,1,4.46,1.59,7.31,7.31,0,0,1,2.62,2.18A4.86,4.86,0,0,1,320.53,1642.94Z"/><path class="cls-1" d="M328.05,1630.41l3.83,13.11,3.48-12.18c.37-1.28.64-2.15.82-2.61a3.49,3.49,0,0,1,1-1.34,3,3,0,0,1,2-.63,3.09,3.09,0,0,1,2.06.63,3.68,3.68,0,0,1,1,1.38c.2.49.48,1.35.84,2.57l3.48,12.18,3.86-13.11c.26-.94.47-1.63.63-2.05a2.68,2.68,0,0,1,.79-1.12,2.4,2.4,0,0,1,1.61-.48,2.58,2.58,0,0,1,1.83.73,2.31,2.31,0,0,1,.77,1.72,9.05,9.05,0,0,1-.66,2.73l-4.8,14q-.62,1.79-1,2.58a3.74,3.74,0,0,1-1.09,1.41,3,3,0,0,1-2,.63,3.08,3.08,0,0,1-2.09-.67,4,4,0,0,1-1.13-1.63c-.24-.65-.51-1.48-.79-2.52l-3.36-11.43L336,1645.79a14.1,14.1,0,0,1-1.4,3.6,2.85,2.85,0,0,1-2.64,1.22,3.34,3.34,0,0,1-1.64-.38,3.21,3.21,0,0,1-1.13-1.07,8.28,8.28,0,0,1-.8-1.66c-.23-.63-.4-1.14-.53-1.51l-4.75-14a10.1,10.1,0,0,1-.71-2.73,2.35,2.35,0,0,1,.75-1.7,2.52,2.52,0,0,1,1.85-.75,2.17,2.17,0,0,1,2,.83A12.12,12.12,0,0,1,328.05,1630.41Z"/><path class="cls-1" d="M363.14,1624a3.11,3.11,0,0,1-2.1-.75,2.92,2.92,0,0,1,0-4.18,3,3,0,0,1,2.08-.81,3.14,3.14,0,0,1,2,.73,2.64,2.64,0,0,1,.88,2.13,2.71,2.71,0,0,1-.86,2.12A3,3,0,0,1,363.14,1624Zm2.9,6.06v17a3.76,3.76,0,0,1-.84,2.66,2.76,2.76,0,0,1-2.13.91,2.62,2.62,0,0,1-2.09-.93,3.86,3.86,0,0,1-.81-2.64v-16.78a3.75,3.75,0,0,1,.81-2.62,2.68,2.68,0,0,1,2.09-.88,2.81,2.81,0,0,1,2.13.88A3.4,3.4,0,0,1,366,1630.09Z"/><path class="cls-1" d="M377.51,1630.05v.71a11.6,11.6,0,0,1,3.44-3,8.35,8.35,0,0,1,4-1,9.37,9.37,0,0,1,5,1.4,9.6,9.6,0,0,1,3.6,4.08,14.27,14.27,0,0,1,1.32,6.36,15.46,15.46,0,0,1-.76,5,11.17,11.17,0,0,1-2.1,3.81,9.2,9.2,0,0,1-3.15,2.36,9.3,9.3,0,0,1-3.89.83,8.23,8.23,0,0,1-4.23-1,12,12,0,0,1-3.25-3v8.81q0,3.87-2.82,3.87a2.25,2.25,0,0,1-2.19-1,6.29,6.29,0,0,1-.53-2.91v-25.31a3.66,3.66,0,0,1,.73-2.5,2.52,2.52,0,0,1,2-.83,2.62,2.62,0,0,1,2,.85A3.43,3.43,0,0,1,377.51,1630.05Zm11.49,8.53a10,10,0,0,0-.71-4,5.84,5.84,0,0,0-2-2.56,4.74,4.74,0,0,0-2.78-.89,5.25,5.25,0,0,0-4.1,1.91,8.37,8.37,0,0,0-1.66,5.63,8.18,8.18,0,0,0,1.65,5.45,5.16,5.16,0,0,0,4.11,1.94,4.73,4.73,0,0,0,2.7-.84,5.88,5.88,0,0,0,2-2.55A10.11,10.11,0,0,0,389,1638.58Z"/><path class="cls-1" d="M416,1640.12H404.49a8,8,0,0,0,.81,3.53,5.41,5.41,0,0,0,4.95,3.07,6.81,6.81,0,0,0,1.92-.25,6.1,6.1,0,0,0,1.69-.77,12.51,12.51,0,0,0,1.5-1.13c.46-.4,1.06-1,1.79-1.63a1.91,1.91,0,0,1,1.29-.39,2.18,2.18,0,0,1,1.46.49,1.79,1.79,0,0,1,.56,1.4,3.79,3.79,0,0,1-.63,1.86,7.22,7.22,0,0,1-1.88,2,10.64,10.64,0,0,1-3.16,1.62,13.53,13.53,0,0,1-4.37.65q-5.64,0-8.78-3.23c-2.1-2.14-3.14-5.06-3.14-8.74a14.72,14.72,0,0,1,.77-4.82,10.64,10.64,0,0,1,2.26-3.82,9.81,9.81,0,0,1,3.65-2.44,13.24,13.24,0,0,1,4.81-.84,11.39,11.39,0,0,1,5.9,1.45,9.49,9.49,0,0,1,3.69,3.75,9.9,9.9,0,0,1,1.22,4.68c0,1.47-.42,2.43-1.27,2.87A8,8,0,0,1,416,1640.12Zm-11.48-3.33h10.64a7.23,7.23,0,0,0-1.62-4.5,4.89,4.89,0,0,0-3.71-1.49,4.7,4.7,0,0,0-3.6,1.51A7.54,7.54,0,0,0,404.49,1636.79Z"/><path class="cls-1" d="M437.06,1627.27h.65v-3.52c0-.94,0-1.69.07-2.22a3.29,3.29,0,0,1,.42-1.39,2.74,2.74,0,0,1,1-1,2.81,2.81,0,0,1,1.44-.37,2.9,2.9,0,0,1,2,.84,2.47,2.47,0,0,1,.76,1.36,12.22,12.22,0,0,1,.16,2.29v4h2.15a2.71,2.71,0,0,1,1.9.6,1.92,1.92,0,0,1,.66,1.51,1.68,1.68,0,0,1-.94,1.65,6,6,0,0,1-2.67.48h-1.1v10.78a18.44,18.44,0,0,0,.1,2.12,2.13,2.13,0,0,0,.52,1.2,1.73,1.73,0,0,0,1.36.46,7.49,7.49,0,0,0,1.4-.18,7.23,7.23,0,0,1,1.37-.18,1.77,1.77,0,0,1,1.28.57,1.92,1.92,0,0,1,.57,1.41,2.37,2.37,0,0,1-1.55,2.17,10.47,10.47,0,0,1-4.45.75,7.61,7.61,0,0,1-4.16-.93,4.22,4.22,0,0,1-1.86-2.55,17.1,17.1,0,0,1-.44-4.36v-11.26h-.78a2.79,2.79,0,0,1-1.93-.6,2,2,0,0,1-.67-1.53,1.89,1.89,0,0,1,.7-1.51A3.05,3.05,0,0,1,437.06,1627.27Z"/><path class="cls-1" d="M474.27,1638.68a14,14,0,0,1-.81,4.84,10.68,10.68,0,0,1-2.37,3.8,10.48,10.48,0,0,1-3.69,2.44,13.15,13.15,0,0,1-4.83.85,12.79,12.79,0,0,1-4.8-.86,10.77,10.77,0,0,1-3.68-2.46,10.56,10.56,0,0,1-2.36-3.78,14.84,14.84,0,0,1,0-9.7,10.54,10.54,0,0,1,2.34-3.79,10.37,10.37,0,0,1,3.69-2.41,14,14,0,0,1,9.63,0,10.38,10.38,0,0,1,6.07,6.23A13.83,13.83,0,0,1,474.27,1638.68Zm-5.88,0a8.8,8.8,0,0,0-1.58-5.58,5.13,5.13,0,0,0-4.24-2,5.27,5.27,0,0,0-3,.89,5.62,5.62,0,0,0-2,2.63,11.93,11.93,0,0,0,0,8.08,5.73,5.73,0,0,0,2,2.63,5.21,5.21,0,0,0,3.07.92,5.12,5.12,0,0,0,4.24-2A8.8,8.8,0,0,0,468.39,1638.68Z"/><path class="cls-1" d="M510.93,1643.35a5,5,0,0,1-.66,2.34,8,8,0,0,1-2,2.37,10.33,10.33,0,0,1-3.38,1.82,14.58,14.58,0,0,1-4.6.68q-5.43,0-8.48-3.16a11.74,11.74,0,0,1-3.06-8.5,14,14,0,0,1,1.4-6.38,10,10,0,0,1,4-4.29,12.5,12.5,0,0,1,6.32-1.51,12.72,12.72,0,0,1,4.18.66,11.17,11.17,0,0,1,3.22,1.72,8.24,8.24,0,0,1,2,2.25,4.47,4.47,0,0,1,.7,2.22,2.35,2.35,0,0,1-.79,1.78,2.66,2.66,0,0,1-1.9.73,1.9,1.9,0,0,1-1.21-.37,5.72,5.72,0,0,1-1.09-1.22,9,9,0,0,0-2.24-2.45,5.13,5.13,0,0,0-3-.81,5.05,5.05,0,0,0-4.19,2,8.76,8.76,0,0,0-1.59,5.55,10.75,10.75,0,0,0,.41,3,7,7,0,0,0,1.18,2.37,5.15,5.15,0,0,0,1.87,1.48,5.77,5.77,0,0,0,2.41.5,5.47,5.47,0,0,0,3-.81,7.33,7.33,0,0,0,2.22-2.5,5.74,5.74,0,0,1,1.16-1.54,2.19,2.19,0,0,1,1.52-.56,2.25,2.25,0,0,1,1.79.82A2.61,2.61,0,0,1,510.93,1643.35Z"/><path class="cls-1" d="M538,1638.68a14,14,0,0,1-.82,4.84,10.66,10.66,0,0,1-2.36,3.8,10.52,10.52,0,0,1-3.7,2.44,13.15,13.15,0,0,1-4.83.85,12.74,12.74,0,0,1-4.79-.86,10.55,10.55,0,0,1-6-6.24,13.83,13.83,0,0,1-.81-4.83,14.06,14.06,0,0,1,.82-4.87,10.54,10.54,0,0,1,2.34-3.79,10.32,10.32,0,0,1,3.7-2.41,12.92,12.92,0,0,1,4.79-.85,13.06,13.06,0,0,1,4.83.86,10.45,10.45,0,0,1,3.72,2.45,10.64,10.64,0,0,1,2.35,3.78A13.83,13.83,0,0,1,538,1638.68Zm-5.89,0a8.8,8.8,0,0,0-1.58-5.58,5.13,5.13,0,0,0-4.24-2,5.27,5.27,0,0,0-3,.89,5.62,5.62,0,0,0-2,2.63,10.78,10.78,0,0,0-.71,4.06,10.51,10.51,0,0,0,.7,4,5.68,5.68,0,0,0,2,2.63,5.5,5.5,0,0,0,7.3-1.09A8.8,8.8,0,0,0,532.11,1638.68Z"/><path class="cls-1" d="M547.94,1630v.71a10.21,10.21,0,0,1,3.39-3,9,9,0,0,1,4.22-1,8.47,8.47,0,0,1,4.15,1,6.43,6.43,0,0,1,2.72,2.86,6.81,6.81,0,0,1,.76,2.32,24.89,24.89,0,0,1,.17,3.18V1647a3.85,3.85,0,0,1-.81,2.66,2.64,2.64,0,0,1-2.09.91,2.7,2.7,0,0,1-2.13-.93,3.86,3.86,0,0,1-.82-2.64v-9.77a9.73,9.73,0,0,0-.8-4.44c-.54-1-1.61-1.54-3.21-1.54a4.72,4.72,0,0,0-2.86.94,5.36,5.36,0,0,0-1.89,2.56,18.27,18.27,0,0,0-.43,4.9V1647a3.84,3.84,0,0,1-.83,2.68,2.79,2.79,0,0,1-2.14.89,2.64,2.64,0,0,1-2.08-.93,3.86,3.86,0,0,1-.82-2.64v-17a3.71,3.71,0,0,1,.73-2.5,2.55,2.55,0,0,1,2-.83,2.75,2.75,0,0,1,1.4.36,2.68,2.68,0,0,1,1,1.1A3.87,3.87,0,0,1,547.94,1630Z"/><path class="cls-1" d="M569.51,1627.27h.65v-3.52c0-.94,0-1.69.07-2.22a3.29,3.29,0,0,1,.42-1.39,2.74,2.74,0,0,1,1-1,2.81,2.81,0,0,1,1.44-.37,2.88,2.88,0,0,1,2,.84,2.41,2.41,0,0,1,.76,1.36,12.22,12.22,0,0,1,.16,2.29v4h2.15a2.71,2.71,0,0,1,1.9.6,1.92,1.92,0,0,1,.66,1.51,1.68,1.68,0,0,1-.94,1.65,6,6,0,0,1-2.67.48H576v10.78a18.44,18.44,0,0,0,.1,2.12,2.2,2.2,0,0,0,.52,1.2,1.75,1.75,0,0,0,1.36.46,7.49,7.49,0,0,0,1.4-.18,7.23,7.23,0,0,1,1.37-.18,1.76,1.76,0,0,1,1.28.57,1.92,1.92,0,0,1,.57,1.41,2.37,2.37,0,0,1-1.55,2.17,10.45,10.45,0,0,1-4.44.75,7.62,7.62,0,0,1-4.17-.93,4.22,4.22,0,0,1-1.86-2.55,17.56,17.56,0,0,1-.44-4.36v-11.26h-.77a2.82,2.82,0,0,1-1.94-.6,2,2,0,0,1-.66-1.53,1.88,1.88,0,0,1,.69-1.51A3.05,3.05,0,0,1,569.51,1627.27Z"/><path class="cls-1" d="M587.73,1624a3.1,3.1,0,0,1-2.09-.75,2.92,2.92,0,0,1,0-4.18,3,3,0,0,1,2.07-.81,3.1,3.1,0,0,1,2,.73,2.61,2.61,0,0,1,.88,2.13,2.67,2.67,0,0,1-.86,2.12A3,3,0,0,1,587.73,1624Zm2.9,6.06v17a3.8,3.8,0,0,1-.83,2.66,2.76,2.76,0,0,1-2.13.91,2.65,2.65,0,0,1-2.1-.93,3.91,3.91,0,0,1-.8-2.64v-16.78a3.8,3.8,0,0,1,.8-2.62,2.71,2.71,0,0,1,2.1-.88,2.81,2.81,0,0,1,2.13.88A3.44,3.44,0,0,1,590.63,1630.09Z"/><path class="cls-1" d="M602,1630v.71a10.19,10.19,0,0,1,3.38-3,9,9,0,0,1,4.23-1,8.46,8.46,0,0,1,4.14,1,6.4,6.4,0,0,1,2.73,2.86,6.59,6.59,0,0,1,.75,2.32,23.17,23.17,0,0,1,.17,3.18V1647a3.85,3.85,0,0,1-.8,2.66,2.88,2.88,0,0,1-4.22,0,3.81,3.81,0,0,1-.82-2.64v-9.77a9.86,9.86,0,0,0-.8-4.44c-.54-1-1.61-1.54-3.22-1.54a4.71,4.71,0,0,0-2.85.94,5.36,5.36,0,0,0-1.89,2.56,18.27,18.27,0,0,0-.43,4.9V1647a3.84,3.84,0,0,1-.83,2.68,2.81,2.81,0,0,1-2.14.89,2.64,2.64,0,0,1-2.08-.93,3.81,3.81,0,0,1-.82-2.64v-17a3.66,3.66,0,0,1,.73-2.5,2.54,2.54,0,0,1,2-.83,2.78,2.78,0,0,1,1.4.36,2.66,2.66,0,0,1,1,1.1A3.75,3.75,0,0,1,602,1630Z"/><path class="cls-1" d="M637.92,1647.3v-.75a13.34,13.34,0,0,1-2.21,2.23,8.16,8.16,0,0,1-2.54,1.34,10,10,0,0,1-3.13.44,8.12,8.12,0,0,1-3.82-.88,6.43,6.43,0,0,1-2.61-2.42,10.79,10.79,0,0,1-1.09-5.38v-11.62a3.79,3.79,0,0,1,.79-2.63,2.72,2.72,0,0,1,2.11-.87,2.8,2.8,0,0,1,2.15.88,3.75,3.75,0,0,1,.81,2.62v9.39a14.48,14.48,0,0,0,.35,3.43,4.12,4.12,0,0,0,1.23,2.17,3.56,3.56,0,0,0,2.42.78,4.88,4.88,0,0,0,2.79-.88,5.15,5.15,0,0,0,1.91-2.3,18.4,18.4,0,0,0,.5-5.46v-7.13a3.75,3.75,0,0,1,.81-2.62,2.78,2.78,0,0,1,2.13-.88,2.73,2.73,0,0,1,2.11.87,3.79,3.79,0,0,1,.79,2.63v17a3.62,3.62,0,0,1-.76,2.51,2.71,2.71,0,0,1-3.95,0A3.5,3.5,0,0,1,637.92,1647.3Z"/><path class="cls-1" d="M665.64,1640.12H654.16a8,8,0,0,0,.81,3.53,5.41,5.41,0,0,0,4.95,3.07,6.81,6.81,0,0,0,1.92-.25,6.1,6.1,0,0,0,1.69-.77,12.51,12.51,0,0,0,1.5-1.13c.46-.4,1.06-1,1.79-1.63a1.91,1.91,0,0,1,1.29-.39,2.18,2.18,0,0,1,1.46.49,1.79,1.79,0,0,1,.56,1.4,3.79,3.79,0,0,1-.63,1.86,7.22,7.22,0,0,1-1.88,2,10.64,10.64,0,0,1-3.16,1.62,13.53,13.53,0,0,1-4.37.65q-5.64,0-8.78-3.23c-2.1-2.14-3.14-5.06-3.14-8.74a14.72,14.72,0,0,1,.77-4.82,10.64,10.64,0,0,1,2.26-3.82,9.81,9.81,0,0,1,3.65-2.44,13.24,13.24,0,0,1,4.81-.84,11.39,11.39,0,0,1,5.9,1.45,9.49,9.49,0,0,1,3.69,3.75,9.9,9.9,0,0,1,1.22,4.68c0,1.47-.42,2.43-1.27,2.87A8,8,0,0,1,665.64,1640.12Zm-11.48-3.33H664.8a7.23,7.23,0,0,0-1.62-4.5,4.89,4.89,0,0,0-3.71-1.49,4.7,4.7,0,0,0-3.6,1.51A7.54,7.54,0,0,0,654.16,1636.79Z"/><path class="cls-3" d="M203,1555.09c.12,25.15-19.6,51.29-65.27,50.14a195.22,195.22,0,0,1-25-2c-8.94.11-15.86,2.24-15.56,6.39.46,6.42,14.88,8.94,14.88,8.94s-36.79,1.71-21-24.08c-11.33-11.47-13.38-26.89-13.46-39.37-.17-25.77,15.11-55.38,65.06-55.25,44.86.12,60.46,30.4,60.34,55.25"/></g></g></svg>