<?xml version="1.0" encoding="utf-8"?>
<!-- Generator: Adobe Illustrator 24.1.2, SVG Export Plug-In . SVG Version: 6.00 Build 0)  -->
<svg version="1.1" id="Layer_2" xmlns="http://www.w3.org/2000/svg" xmlns:xlink="http://www.w3.org/1999/xlink" x="0px" y="0px"
	 viewBox="0 0 972 1745.3" style="enable-background:new 0 0 972 1745.3;" xml:space="preserve">
<style type="text/css">
	.light{fill:#F9B2A7;}
	.dark{fill:#FF2B00;}
</style>
<g>
	<polygon class="light" points="363.2,1720.3 214.2,1646.4 363.2,1572.6 335.6,1611.4 749,1605.6 749,1687.3 335.6,1681.4 	"/>
	<path class="dark" d="M358.5,1649.5c0.1,3.1-1.8,5.8-4.7,6.8c-1.8,0.6-3.7,0.9-5.6,0.9c-1.9,0-3.7-0.3-5.4-1
		c-1.3-0.5-2.5-1.3-3.3-2.4c-0.7-0.8-1-1.8-1.1-2.9c0-0.6,0.2-1.2,0.7-1.7c0.5-0.5,1.1-0.7,1.7-0.7c0.5,0,1,0.1,1.4,0.5
		c0.4,0.4,0.7,0.8,0.9,1.3c1,2.1,3.3,3.3,5.6,3.1c1,0,2-0.2,2.9-0.8c0.7-0.4,1.1-1,1.1-1.8c0.1-0.9-0.4-1.8-1.2-2.3
		c-1.2-0.6-2.5-1.1-3.9-1.3c-1.7-0.4-3.3-0.9-4.9-1.6c-1.2-0.5-2.2-1.2-3-2.2c-0.8-0.9-1.2-2.1-1.1-3.3c0-1.2,0.4-2.4,1-3.3
		c0.8-1.1,1.9-2,3.1-2.5c1.6-0.7,3.3-1,5-0.9c1.4,0,2.8,0.1,4.1,0.5c1.1,0.3,2.1,0.7,3,1.3c0.7,0.5,1.4,1.1,1.9,1.8
		c0.4,0.6,0.6,1.2,0.6,1.9c0,0.6-0.2,1.2-0.7,1.7c-0.5,0.5-1.2,0.7-1.9,0.6c-0.6,0-1.1-0.2-1.5-0.5c-0.5-0.5-1-1-1.5-1.6
		c-0.4-0.6-1-1-1.6-1.4c-0.8-0.4-1.6-0.6-2.5-0.5c-0.9,0-1.8,0.2-2.6,0.7c-0.6,0.3-1,1-1.1,1.7c0,0.6,0.3,1.2,0.8,1.5
		c0.6,0.5,1.3,0.8,2.1,1c0.9,0.3,2.1,0.6,3.6,0.9c1.5,0.3,3,0.9,4.5,1.6c1,0.5,1.9,1.3,2.6,2.2
		C358.3,1647.5,358.6,1648.5,358.5,1649.5z"/>
	<path class="dark" d="M366,1637l3.8,13.1l3.5-12.2c0.4-1.3,0.6-2.2,0.8-2.6c0.2-0.5,0.6-1,1-1.3c0.6-0.4,1.3-0.7,2-0.6
		c0.7,0,1.5,0.2,2.1,0.6c0.4,0.4,0.8,0.8,1,1.4c0.2,0.5,0.5,1.3,0.8,2.6l3.5,12.2l3.9-13.1c0.3-1,0.5-1.6,0.6-2.1
		c0.2-0.4,0.4-0.8,0.8-1.1c0.5-0.4,1-0.5,1.6-0.5c0.7,0,1.3,0.3,1.8,0.7c0.5,0.4,0.8,1.1,0.8,1.7c-0.1,0.9-0.3,1.9-0.7,2.7l-4.8,14
		c-0.4,1.2-0.7,2.1-1,2.6c-0.2,0.6-0.6,1-1.1,1.4c-0.6,0.4-1.3,0.7-2,0.6c-0.8,0-1.5-0.2-2.1-0.7c-0.5-0.4-0.9-1-1.1-1.6
		c-0.2-0.6-0.5-1.5-0.8-2.5l-3.4-11.4l-3.1,11.5c-0.3,1.3-0.8,2.5-1.4,3.6c-0.6,0.9-1.6,1.3-2.6,1.2c-0.6,0-1.1-0.1-1.6-0.4
		c-0.5-0.3-0.8-0.6-1.1-1.1c-0.3-0.5-0.6-1.1-0.8-1.7c-0.2-0.6-0.4-1.2-0.5-1.5l-4.8-14c-0.4-0.9-0.6-1.8-0.7-2.7
		c0-0.6,0.3-1.3,0.8-1.7c0.5-0.5,1.2-0.8,1.9-0.8c0.8-0.1,1.5,0.2,2,0.8C365.5,1635.1,365.8,1636,366,1637z"/>
	<path class="dark" d="M401.1,1630.6c-0.8,0-1.5-0.2-2.1-0.8c-0.6-0.5-0.9-1.3-0.9-2.1c0-0.8,0.3-1.5,0.9-2.1
		c0.6-0.5,1.3-0.8,2.1-0.8c0.7,0,1.4,0.3,2,0.7c0.6,0.5,0.9,1.3,0.9,2.1c0,0.8-0.3,1.6-0.9,2.1
		C402.6,1630.3,401.9,1630.6,401.1,1630.6z M404,1636.6v16.9c0.1,1-0.2,1.9-0.8,2.7c-0.5,0.6-1.3,0.9-2.1,0.9
		c-0.8,0-1.6-0.3-2.1-0.9c-0.6-0.8-0.9-1.7-0.8-2.7v-16.8c-0.1-0.9,0.2-1.9,0.8-2.6c0.5-0.6,1.3-0.9,2.1-0.9c0.8,0,1.6,0.3,2.1,0.9
		C403.8,1634.9,404.1,1635.8,404,1636.6L404,1636.6z"/>
	<path class="dark" d="M415.5,1636.6v0.7c0.9-1.2,2.1-2.2,3.4-3c1.2-0.7,2.6-1,4-1c1.8,0,3.5,0.5,5,1.4c1.6,1,2.8,2.4,3.6,4.1
		c0.9,2,1.4,4.2,1.3,6.4c0,1.7-0.2,3.4-0.8,5c-0.4,1.4-1.2,2.7-2.1,3.8c-1.8,2-4.3,3.2-7,3.2c-1.5,0.1-2.9-0.3-4.2-1
		c-1.3-0.8-2.4-1.8-3.3-3v8.8c0,2.6-0.9,3.9-2.8,3.9c-0.9,0.1-1.7-0.3-2.2-1c-0.4-0.9-0.6-1.8-0.5-2.8v-25.3
		c-0.1-0.9,0.2-1.8,0.7-2.5c0.5-0.6,1.2-0.9,2-0.8c0.8,0,1.5,0.3,2,0.8C415.3,1634.9,415.6,1635.7,415.5,1636.6z M427,1645.1
		c0-1.4-0.2-2.7-0.7-4c-0.4-1-1.1-1.9-2-2.6c-0.8-0.6-1.8-0.9-2.8-0.9c-1.6,0-3.1,0.7-4.1,1.9c-1.2,1.6-1.8,3.6-1.7,5.6
		c-0.1,2,0.5,3.9,1.6,5.4c1,1.3,2.5,2,4.1,2c1,0,1.9-0.3,2.7-0.8c0.9-0.6,1.6-1.5,2-2.6C426.8,1648,427,1646.6,427,1645.1z"/>
	<path class="dark" d="M454,1646.7h-11.5c0,1.2,0.3,2.4,0.8,3.5c0.9,1.9,2.8,3.1,5,3.1c0.6,0,1.3-0.1,1.9-0.2
		c0.6-0.2,1.2-0.4,1.7-0.8c0.5-0.3,1-0.7,1.5-1.1c0.5-0.4,1.1-0.9,1.8-1.6c0.4-0.3,0.8-0.4,1.3-0.4c0.5,0,1.1,0.2,1.5,0.5
		c0.4,0.4,0.6,0.9,0.6,1.4c0,0.7-0.3,1.3-0.6,1.9c-0.5,0.8-1.1,1.5-1.9,2c-1,0.7-2,1.3-3.2,1.6c-1.4,0.5-2.9,0.7-4.4,0.6
		c-3.8,0-6.7-1.1-8.8-3.2c-2.1-2.2-3.1-5.1-3.1-8.8c0-1.6,0.2-3.3,0.8-4.8c0.5-1.4,1.2-2.7,2.3-3.8c1-1.1,2.3-1.9,3.6-2.4
		c1.5-0.6,3.2-0.9,4.8-0.8c2.1-0.1,4.1,0.4,5.9,1.4c1.6,0.9,2.8,2.2,3.7,3.8c0.8,1.4,1.2,3,1.2,4.7c0,1.5-0.4,2.4-1.3,2.9
		C456.4,1646.5,455.2,1646.7,454,1646.7z M442.5,1643.4h10.6c0-1.6-0.6-3.2-1.6-4.5c-1-1-2.3-1.6-3.7-1.5c-1.4,0-2.7,0.5-3.6,1.5
		C443.2,1640.1,442.6,1641.7,442.5,1643.4L442.5,1643.4z"/>
	<path class="dark" d="M475.1,1633.8h0.6v-3.5c0-1,0-1.7,0.1-2.2c0-0.5,0.2-1,0.4-1.4c0.2-0.4,0.6-0.8,1-1c0.4-0.3,0.9-0.4,1.4-0.4
		c0.8,0,1.5,0.3,2,0.8c0.4,0.4,0.7,0.8,0.8,1.4c0.1,0.8,0.2,1.5,0.2,2.3v4h2.1c0.7,0,1.4,0.2,1.9,0.6c0.4,0.4,0.7,0.9,0.7,1.5
		c0.1,0.7-0.3,1.4-0.9,1.7c-0.8,0.4-1.8,0.5-2.7,0.5h-1.1v10.8c0,0.7,0,1.4,0.1,2.1c0,0.4,0.2,0.9,0.5,1.2c0.4,0.3,0.9,0.5,1.4,0.5
		c0.5,0,0.9-0.1,1.4-0.2c0.4-0.1,0.9-0.2,1.4-0.2c0.5,0,0.9,0.2,1.3,0.6c0.4,0.4,0.6,0.9,0.6,1.4c0,1-0.6,1.8-1.5,2.2
		c-1.4,0.6-2.9,0.8-4.5,0.8c-1.4,0.1-2.9-0.2-4.2-0.9c-0.9-0.6-1.6-1.5-1.9-2.6c-0.3-1.4-0.5-2.9-0.4-4.4V1638h-0.8
		c-0.7,0-1.4-0.2-1.9-0.6c-0.4-0.4-0.7-0.9-0.7-1.5c0-0.6,0.2-1.1,0.7-1.5C473.6,1634,474.3,1633.8,475.1,1633.8z"/>
	<path class="dark" d="M512.3,1645.2c0,1.6-0.3,3.3-0.8,4.8c-0.5,1.4-1.3,2.7-2.4,3.8c-1,1.1-2.3,1.9-3.7,2.4
		c-1.5,0.6-3.2,0.9-4.8,0.8c-1.6,0-3.3-0.3-4.8-0.9c-2.8-1.1-5-3.4-6-6.2c-0.6-1.5-0.8-3.2-0.8-4.8c0-1.7,0.3-3.3,0.8-4.9
		c0.5-1.4,1.3-2.7,2.3-3.8c1-1.1,2.3-1.9,3.7-2.4c3.1-1.1,6.5-1.1,9.6,0c2.8,1.1,5.1,3.4,6.1,6.2
		C512,1641.9,512.3,1643.6,512.3,1645.2z M506.4,1645.2c0.1-2-0.4-4-1.6-5.6c-1-1.3-2.6-2.1-4.2-2c-1.1,0-2.1,0.3-3,0.9
		c-0.9,0.7-1.6,1.6-2,2.6c-0.9,2.6-0.9,5.5,0,8.1c0.4,1.1,1.1,2,2,2.6c0.9,0.6,2,0.9,3.1,0.9c1.7,0.1,3.2-0.7,4.2-2
		C506,1649.2,506.5,1647.2,506.4,1645.2z"/>
	<path class="dark" d="M548.9,1649.9c0,0.8-0.3,1.6-0.7,2.3c-0.5,0.9-1.2,1.7-2,2.4c-1,0.8-2.2,1.4-3.4,1.8c-1.5,0.5-3,0.7-4.6,0.7
		c-3.6,0-6.4-1.1-8.5-3.2c-2.1-2.3-3.2-5.4-3.1-8.5c0-2.2,0.4-4.4,1.4-6.4c0.9-1.8,2.3-3.3,4-4.3c1.9-1,4.1-1.6,6.3-1.5
		c1.4,0,2.8,0.2,4.2,0.7c1.2,0.4,2.3,1,3.2,1.7c0.8,0.6,1.5,1.4,2,2.2c0.4,0.7,0.7,1.4,0.7,2.2c0,0.7-0.3,1.3-0.8,1.8
		c-0.5,0.5-1.2,0.7-1.9,0.7c-0.4,0-0.9-0.1-1.2-0.4c-0.4-0.3-0.8-0.8-1.1-1.2c-0.6-1-1.3-1.8-2.2-2.4c-2.4-1.5-5.4-0.9-7.2,1.2
		c-1.1,1.6-1.7,3.6-1.6,5.6c0,1,0.1,2,0.4,3c0.2,0.9,0.6,1.7,1.2,2.4c0.5,0.6,1.1,1.1,1.9,1.5c0.8,0.3,1.6,0.5,2.4,0.5
		c1.1,0,2.1-0.3,3-0.8c0.9-0.6,1.7-1.5,2.2-2.5c0.3-0.6,0.7-1.1,1.2-1.6c0.4-0.4,1-0.6,1.5-0.6c0.7,0,1.3,0.3,1.8,0.8
		C548.6,1648.6,548.9,1649.2,548.9,1649.9z"/>
	<path class="dark" d="M576,1645.2c0,1.6-0.3,3.3-0.8,4.8c-0.5,1.4-1.3,2.7-2.4,3.8c-1,1.1-2.3,1.9-3.7,2.4
		c-1.5,0.6-3.2,0.9-4.8,0.8c-1.6,0-3.3-0.3-4.8-0.9c-1.4-0.6-2.6-1.4-3.7-2.5c-1-1.1-1.8-2.4-2.4-3.8c-0.6-1.5-0.8-3.2-0.8-4.8
		c0-1.7,0.3-3.3,0.8-4.9c0.5-1.4,1.3-2.7,2.3-3.8c1-1.1,2.3-1.9,3.7-2.4c3.1-1.1,6.5-1.1,9.6,0c2.8,1.1,5.1,3.4,6.1,6.2
		C575.7,1641.9,576,1643.6,576,1645.2z M570.1,1645.2c0.1-2-0.4-4-1.6-5.6c-1-1.3-2.6-2.1-4.2-2c-1.1,0-2.1,0.3-3,0.9
		c-0.9,0.7-1.6,1.6-2,2.6c-0.5,1.3-0.7,2.7-0.7,4.1c0,1.4,0.2,2.7,0.7,4c0.4,1.1,1.1,2,2,2.6c2.4,1.6,5.5,1.1,7.3-1.1
		C569.7,1649.2,570.2,1647.2,570.1,1645.2z"/>
	<path class="dark" d="M585.9,1636.6v0.7c0.9-1.2,2.1-2.3,3.4-3c1.3-0.7,2.8-1,4.2-1c1.4,0,2.9,0.3,4.2,1c1.2,0.6,2.1,1.6,2.7,2.9
		c0.4,0.7,0.6,1.5,0.8,2.3c0.1,1.1,0.2,2.1,0.2,3.2v10.9c0.1,1-0.2,1.9-0.8,2.7c-0.5,0.6-1.3,0.9-2.1,0.9c-0.8,0-1.6-0.3-2.1-0.9
		c-0.6-0.8-0.9-1.7-0.8-2.7v-9.8c0.1-1.5-0.2-3-0.8-4.4c-0.5-1-1.6-1.5-3.2-1.5c-1,0-2,0.3-2.9,0.9c-0.9,0.6-1.5,1.5-1.9,2.6
		c-0.4,1.6-0.5,3.3-0.4,4.9v7.3c0.1,1-0.2,1.9-0.8,2.7c-0.6,0.6-1.3,0.9-2.1,0.9c-0.8,0-1.6-0.3-2.1-0.9c-0.6-0.8-0.9-1.7-0.8-2.7
		v-16.9c-0.1-0.9,0.2-1.8,0.7-2.5c0.5-0.6,1.2-0.9,2-0.8c0.5,0,1,0.1,1.4,0.4c0.4,0.3,0.8,0.6,1,1.1
		C585.8,1635.3,586,1635.9,585.9,1636.6z"/>
	<path class="dark" d="M607.5,1633.8h0.7v-3.5c0-1,0-1.7,0.1-2.2c0-0.5,0.2-1,0.4-1.4c0.2-0.4,0.6-0.8,1-1c0.4-0.3,0.9-0.4,1.4-0.4
		c0.8,0,1.5,0.3,2,0.8c0.4,0.4,0.7,0.8,0.8,1.4c0.1,0.8,0.2,1.5,0.2,2.3v4h2.2c0.7,0,1.4,0.2,1.9,0.6c0.4,0.4,0.7,0.9,0.7,1.5
		c0.1,0.7-0.3,1.4-0.9,1.7c-0.8,0.4-1.8,0.5-2.7,0.5H614v10.8c0,0.7,0,1.4,0.1,2.1c0,0.4,0.2,0.9,0.5,1.2c0.4,0.3,0.9,0.5,1.4,0.5
		c0.5,0,0.9-0.1,1.4-0.2c0.4-0.1,0.9-0.2,1.4-0.2c0.5,0,1,0.2,1.3,0.6c0.4,0.4,0.6,0.9,0.6,1.4c0,1-0.6,1.8-1.5,2.2
		c-1.4,0.6-2.9,0.8-4.4,0.8c-1.4,0.1-2.9-0.2-4.2-0.9c-0.9-0.6-1.6-1.5-1.9-2.6c-0.3-1.4-0.5-2.9-0.4-4.4V1638h-0.8
		c-0.7,0-1.4-0.2-1.9-0.6c-0.4-0.4-0.7-0.9-0.7-1.5c0-0.6,0.2-1.1,0.7-1.5C606.1,1634,606.8,1633.8,607.5,1633.8z"/>
	<path class="dark" d="M625.7,1630.6c-0.8,0-1.5-0.3-2.1-0.8c-0.6-0.5-0.9-1.3-0.9-2.1c0-0.8,0.3-1.5,0.9-2.1c1.2-1,2.9-1.1,4.1-0.1
		c0.6,0.5,0.9,1.3,0.9,2.1c0,0.8-0.3,1.6-0.9,2.1C627.2,1630.3,626.5,1630.6,625.7,1630.6z M628.6,1636.6v16.9
		c0.1,1-0.2,1.9-0.8,2.7c-0.5,0.6-1.3,0.9-2.1,0.9c-0.8,0-1.6-0.3-2.1-0.9c-0.6-0.8-0.9-1.7-0.8-2.7v-16.8c-0.1-0.9,0.2-1.9,0.8-2.6
		c0.5-0.6,1.3-0.9,2.1-0.9c0.8,0,1.6,0.3,2.1,0.9C628.4,1634.9,628.7,1635.7,628.6,1636.6z"/>
	<path class="dark" d="M640,1636.6v0.7c0.9-1.2,2-2.3,3.4-3c1.3-0.7,2.8-1,4.2-1c1.4,0,2.9,0.3,4.1,1c1.2,0.6,2.1,1.6,2.7,2.9
		c0.4,0.7,0.6,1.5,0.8,2.3c0.1,1.1,0.2,2.1,0.2,3.2v10.9c0.1,1-0.2,1.9-0.8,2.7c-1.1,1.2-2.9,1.2-4.1,0.1c0,0-0.1-0.1-0.1-0.1
		c-0.6-0.8-0.9-1.7-0.8-2.7v-9.8c0.1-1.5-0.2-3-0.8-4.4c-0.5-1-1.6-1.5-3.2-1.5c-1,0-2,0.3-2.8,0.9c-0.9,0.6-1.5,1.5-1.9,2.6
		c-0.4,1.6-0.5,3.3-0.4,4.9v7.3c0.1,1-0.2,1.9-0.8,2.7c-0.6,0.6-1.3,0.9-2.1,0.9c-0.8,0-1.6-0.3-2.1-0.9c-0.6-0.8-0.9-1.7-0.8-2.7
		v-16.9c-0.1-0.9,0.2-1.8,0.7-2.5c0.5-0.6,1.2-0.9,2-0.8c0.5,0,1,0.1,1.4,0.4c0.4,0.3,0.8,0.6,1,1.1
		C639.9,1635.3,640,1635.9,640,1636.6z"/>
	<path class="dark" d="M675.9,1653.8v-0.8c-0.6,0.8-1.4,1.6-2.2,2.2c-0.8,0.6-1.6,1.1-2.5,1.3c-1,0.3-2.1,0.5-3.1,0.4
		c-1.3,0-2.6-0.3-3.8-0.9c-1.1-0.6-2-1.4-2.6-2.4c-0.8-1.7-1.2-3.5-1.1-5.4v-11.6c-0.1-0.9,0.2-1.9,0.8-2.6c0.5-0.6,1.3-0.9,2.1-0.9
		c0.8,0,1.6,0.3,2.2,0.9c0.6,0.7,0.9,1.7,0.8,2.6v9.4c0,1.2,0.1,2.3,0.3,3.4c0.2,0.8,0.6,1.6,1.2,2.2c0.7,0.5,1.5,0.8,2.4,0.8
		c1,0,2-0.3,2.8-0.9c0.8-0.6,1.5-1.4,1.9-2.3c0.4-1.8,0.6-3.6,0.5-5.5v-7.1c-0.1-0.9,0.2-1.9,0.8-2.6c0.6-0.6,1.3-0.9,2.1-0.9
		c0.8,0,1.6,0.3,2.1,0.9c0.6,0.8,0.9,1.7,0.8,2.6v17c0.1,0.9-0.2,1.8-0.8,2.5c-1,1.1-2.7,1.1-3.8,0.1c0,0-0.1-0.1-0.1-0.1
		C676.1,1655.6,675.9,1654.7,675.9,1653.8z"/>
	<path class="dark" d="M703.6,1646.7h-11.5c0,1.2,0.3,2.4,0.8,3.5c0.9,1.9,2.8,3.1,5,3.1c0.6,0,1.3-0.1,1.9-0.2
		c0.6-0.2,1.2-0.4,1.7-0.8c0.5-0.3,1-0.7,1.5-1.1c0.5-0.4,1.1-0.9,1.8-1.6c0.4-0.3,0.8-0.4,1.3-0.4c0.5,0,1.1,0.2,1.5,0.5
		c0.4,0.4,0.6,0.9,0.6,1.4c0,0.7-0.3,1.3-0.6,1.9c-0.5,0.8-1.1,1.5-1.9,2c-1,0.7-2,1.3-3.2,1.6c-1.4,0.5-2.9,0.7-4.4,0.6
		c-3.8,0-6.7-1.1-8.8-3.2c-2.1-2.2-3.1-5.1-3.1-8.8c0-1.6,0.2-3.3,0.8-4.8c0.5-1.4,1.2-2.7,2.3-3.8c1-1.1,2.3-1.9,3.7-2.4
		c1.5-0.6,3.2-0.9,4.8-0.8c2.1-0.1,4.1,0.4,5.9,1.4c1.6,0.9,2.8,2.2,3.7,3.8c0.8,1.4,1.2,3,1.2,4.7c0,1.5-0.4,2.4-1.3,2.9
		C706.1,1646.5,704.9,1646.7,703.6,1646.7z M692.2,1643.4h10.6c0-1.6-0.6-3.2-1.6-4.5c-1-1-2.3-1.6-3.7-1.5c-1.4,0-2.7,0.5-3.6,1.5
		C692.8,1640.1,692.2,1641.7,692.2,1643.4L692.2,1643.4z"/>
</g>
</svg>
