<svg xmlns="http://www.w3.org/2000/svg" viewBox="0 0 230.38 425.83"><g id="Layer_2" data-name="Layer 2"><g id="Layer_1-2" data-name="Layer 1"><path class="cls-1" d="M29.85,241.8a29.53,29.53,0,0,0-5.76.56c0-.38-.08-.76-.11-1.14A29.81,29.81,0,0,0,29.85,241.8Z"/><path class="cls-1" d="M208.93,242.52c0,.16,0,.32,0,.47a29.85,29.85,0,0,1-.3,57.4,29.84,29.84,0,0,1-21.34,50.71h-.46a29.85,29.85,0,0,1-42.53,39.32,29.3,29.3,0,0,1,.53,5.57,29.85,29.85,0,0,1-59.7,0,29,29,0,0,1,.45-5.13A29.86,29.86,0,0,1,43.7,351.09h-.45a29.85,29.85,0,0,1-21.37-50.69,29.85,29.85,0,0,1,2.21-58.05,29.53,29.53,0,0,1,5.76-.56,29.85,29.85,0,0,1-7.55-58.73,29.86,29.86,0,0,1,2.8-58.36A29.85,29.85,0,0,1,40.48,69.27c.26,0,.53,0,.79,0A29.89,29.89,0,0,1,69.78,30.55a29.7,29.7,0,0,1,16.34,4.87,29.22,29.22,0,0,1-.53-5.57,29.85,29.85,0,0,1,59.7,0,28.88,28.88,0,0,1-.45,5.13,29.85,29.85,0,0,1,41.84,39.75h.45a29.84,29.84,0,0,1,21.36,50.69,29.85,29.85,0,0,1,.21,57.48c.08.78.16,1.56.23,2.35a29.85,29.85,0,0,1,0,57.28Z"/></g></g></svg>