<svg xmlns="http://www.w3.org/2000/svg" viewBox="0 0 972 1745.31"><defs><style>.cls-1{}.cls-2{fill:#b779b3;}.cls-3,.cls-5,.cls-6{fill:none;stroke-miterlimit:10;}.cls-3,.cls-5{stroke:#fff;}.cls-3{stroke-width:2px;}.cls-4{fill:#fff;}.cls-5{stroke-width:4px;}.cls-6{stroke:#b779b3;stroke-width:5px;}</style></defs><title>Asset 19</title><g id="Layer_2" data-name="Layer 2"><g id="Layer_4" data-name="Layer 4"><rect style="fill:#49247f;" width="972" height="1745.31" rx="84.69"/><path style="fill:#b779b3;" d="M608.33,1215.54c-1.54,30.55-64.6,55.36-102.67,59.86-60.46,7.15-96.63-18.58-113.3-56.58-4.09-9.34.93-15.7,1.47-15.65,99.65,56.83,155.63,34.83,189.65.14C585.91,1202.44,608.53,1211.67,608.33,1215.54Z"/><path style="fill:none;stroke-miterlimit:10;stroke:#fff;stroke-width:2px;" d="M379.13,1013.57s-9.11,37.08,24.81,54.48c23.53,12.07,43.83,9.08,70.37-4.43"/><path style="fill:none;stroke-miterlimit:10;stroke:#fff;stroke-width:2px;" d="M424.57,1093.08s-.71-18.46-18.81-22c-12.56-2.47-21.6,1.63-32.14,11.46"/><path style="fill:#fff;" d="M387.16,937.84c0,6.52,20.12-4.7,37.53,4.12s20.48,31.24,25.54,27.81c9.94-6.72-.62-33.8-18-42.62S387.24,926.12,387.16,937.84Z"/><path style="fill:#fff;" d="M486.67,988.72c-1.9,6.24,20.62,1.23,34.8,14.64s10.73,35.77,16.56,33.93c11.44-3.61,9-32.58-5.15-46S490.08,977.51,486.67,988.72Z"/><circle cx="434.47" cy="948.67" r="9.41"/><circle cx="529.5" cy="1012.4" r="9.41"/><path style="fill:#b779b3;" d="M655.09,704.5c-44.62,44.93-65,157.07-67,164.8s-4.75,30.32-5.29,30.12c-2.57-1.2-2.72-1.42-5.29-2.62-.41-.15-.88-8.75,3.6-30.58,11.28-47.5,16.55-107.91,68.24-165.37,18.51-20.58,41.57-19.7,41.57-19.7,49.87-58.7-19.92-153.47-86.59-109.53-20,13.21-58.38,98.75-61.67,105.15s-29.06,67.88-35.37,101c-3.1,16.28-10,65.67-10.37,66-2.31,2.07-6.84-1.12-6.67-3.46-.45-.26,2.58-31.15,12.18-75.23s58-139.91,67.89-159.11c.45-21.14-11.39-34.31-34-39.81-19.27-5.41-28.32,1.91-41.9,10.61-14.27,9.13-54.29,71.33-70.25,170.49-13,81-9.29,117.42-72.67,159.52,0,0-9.5-43.61-21.48-81.51C275,661.59,95.42,802,160.39,872.41c4,5.24,63,23.19,63,23.22s37.37,12.16,61,49.85c11.14,17.81-4.73,83.8.94,120.61,11.2,72.63,50.76,105.47,102.06,124.7.62.24,5.75-12.69,5.95-13.36,6.8-23.07-9.87-40.55,8.8-56.12,5-2.46,2.3,1,.5,3.49-6.95,9.64-4.5,24.31-3.5,31.93,4.17,50.25,121.53,99.58,199.7,21.82C712.13,976.3,584.49,1081.87,735,772.45,773.7,693,693.36,668.36,655.09,704.5ZM450.23,969.77c-5.06,3.43-8.12-19-25.54-27.81s-37.57,2.4-37.53-4.12c.08-11.72,27.62-19.51,45-10.69S460.17,963.05,450.23,969.77Zm87.8,67.52c-5.83,1.84-2.38-20.52-16.56-33.93s-36.7-8.4-34.8-14.64c3.41-11.21,32-10.84,46.21,2.58S549.47,1033.68,538,1037.29Z"/><path style="fill:none;stroke-miterlimit:10;stroke:#fff;stroke-width:4px;" d="M511.92,1047.93s-82.68,18.78-29.3,84"/><path style="fill:none;stroke-miterlimit:10;stroke:#fff;stroke-width:4px;" d="M389.48,981.91s13.29,71.44-56.16,51.58"/><rect class="cls-6" x="29.58" y="192.72" width="912" height="1451.5" rx="84.69"/><path style="fill:none;stroke-miterlimit:10;stroke:#fff;stroke-width:4px;" d="M389.13,1009.57s-9.11,37.08,24.81,54.48c23.53,12.07,43.83,9.08,70.37-4.43"/><path style="fill:none;stroke-miterlimit:10;stroke:#fff;stroke-width:4px;" d="M434.57,1089.08s-.71-18.46-18.81-22c-12.56-2.47-21.6,1.63-32.14,11.46"/></g></g></svg>